<mxfile host="app.diagrams.net" modified="2022-07-04T15:22:03.857Z" agent="5.0 (Windows NT 10.0; Win64; x64) AppleWebKit/537.36 (KHTML, like Gecko) Chrome/103.0.5060.66 Safari/537.36 Edg/103.0.1264.44" etag="y-CGrgpjjaRCY43Ir4od" version="20.0.4" type="github">
  <diagram id="4_IN6T7JvVpRC7zCYQCG" name="Page-1">
    <mxGraphModel dx="2430" dy="882" grid="1" gridSize="10" guides="1" tooltips="1" connect="1" arrows="1" fold="1" page="1" pageScale="1" pageWidth="850" pageHeight="1100" math="0" shadow="0">
      <root>
        <mxCell id="0" />
        <mxCell id="1" parent="0" />
        <mxCell id="MP63xAjJxbPP2gbI5e4D-1" value="User" style="swimlane;fontStyle=3;align=center;verticalAlign=top;childLayout=stackLayout;horizontal=1;startSize=26;horizontalStack=0;resizeParent=1;resizeLast=0;collapsible=1;marginBottom=0;rounded=0;shadow=0;strokeWidth=1;fontSize=15;" parent="1" vertex="1">
          <mxGeometry x="80" y="80" width="240" height="528" as="geometry">
            <mxRectangle x="230" y="140" width="160" height="26" as="alternateBounds" />
          </mxGeometry>
        </mxCell>
        <mxCell id="MP63xAjJxbPP2gbI5e4D-2" value="-id: String" style="text;align=left;verticalAlign=top;spacingLeft=4;spacingRight=4;overflow=hidden;rotatable=0;points=[[0,0.5],[1,0.5]];portConstraint=eastwest;" parent="MP63xAjJxbPP2gbI5e4D-1" vertex="1">
          <mxGeometry y="26" width="240" height="26" as="geometry" />
        </mxCell>
        <mxCell id="MP63xAjJxbPP2gbI5e4D-3" value="-fullName: String" style="text;align=left;verticalAlign=top;spacingLeft=4;spacingRight=4;overflow=hidden;rotatable=0;points=[[0,0.5],[1,0.5]];portConstraint=eastwest;rounded=0;shadow=0;html=0;" parent="MP63xAjJxbPP2gbI5e4D-1" vertex="1">
          <mxGeometry y="52" width="240" height="26" as="geometry" />
        </mxCell>
        <mxCell id="MP63xAjJxbPP2gbI5e4D-4" value="-username: String" style="text;align=left;verticalAlign=top;spacingLeft=4;spacingRight=4;overflow=hidden;rotatable=0;points=[[0,0.5],[1,0.5]];portConstraint=eastwest;rounded=0;shadow=0;html=0;" parent="MP63xAjJxbPP2gbI5e4D-1" vertex="1">
          <mxGeometry y="78" width="240" height="26" as="geometry" />
        </mxCell>
        <mxCell id="MP63xAjJxbPP2gbI5e4D-5" value="-password String" style="text;align=left;verticalAlign=top;spacingLeft=4;spacingRight=4;overflow=hidden;rotatable=0;points=[[0,0.5],[1,0.5]];portConstraint=eastwest;rounded=0;shadow=0;html=0;" parent="MP63xAjJxbPP2gbI5e4D-1" vertex="1">
          <mxGeometry y="104" width="240" height="26" as="geometry" />
        </mxCell>
        <mxCell id="3bS9maTXzXxZ_Xsgd8PR-44" value="-email" style="text;align=left;verticalAlign=top;spacingLeft=4;spacingRight=4;overflow=hidden;rotatable=0;points=[[0,0.5],[1,0.5]];portConstraint=eastwest;rounded=0;shadow=0;html=0;" vertex="1" parent="MP63xAjJxbPP2gbI5e4D-1">
          <mxGeometry y="130" width="240" height="26" as="geometry" />
        </mxCell>
        <mxCell id="MP63xAjJxbPP2gbI5e4D-6" value="-phoneNumber" style="text;align=left;verticalAlign=top;spacingLeft=4;spacingRight=4;overflow=hidden;rotatable=0;points=[[0,0.5],[1,0.5]];portConstraint=eastwest;rounded=0;shadow=0;html=0;" parent="MP63xAjJxbPP2gbI5e4D-1" vertex="1">
          <mxGeometry y="156" width="240" height="26" as="geometry" />
        </mxCell>
        <mxCell id="MP63xAjJxbPP2gbI5e4D-7" value="-address: String" style="text;align=left;verticalAlign=top;spacingLeft=4;spacingRight=4;overflow=hidden;rotatable=0;points=[[0,0.5],[1,0.5]];portConstraint=eastwest;rounded=0;shadow=0;html=0;" parent="MP63xAjJxbPP2gbI5e4D-1" vertex="1">
          <mxGeometry y="182" width="240" height="26" as="geometry" />
        </mxCell>
        <mxCell id="MP63xAjJxbPP2gbI5e4D-8" value="-gender: String" style="text;align=left;verticalAlign=top;spacingLeft=4;spacingRight=4;overflow=hidden;rotatable=0;points=[[0,0.5],[1,0.5]];portConstraint=eastwest;rounded=0;shadow=0;html=0;" parent="MP63xAjJxbPP2gbI5e4D-1" vertex="1">
          <mxGeometry y="208" width="240" height="26" as="geometry" />
        </mxCell>
        <mxCell id="MP63xAjJxbPP2gbI5e4D-9" value="-dob: Date" style="text;align=left;verticalAlign=top;spacingLeft=4;spacingRight=4;overflow=hidden;rotatable=0;points=[[0,0.5],[1,0.5]];portConstraint=eastwest;rounded=0;shadow=0;html=0;" parent="MP63xAjJxbPP2gbI5e4D-1" vertex="1">
          <mxGeometry y="234" width="240" height="26" as="geometry" />
        </mxCell>
        <mxCell id="MP63xAjJxbPP2gbI5e4D-10" value="-role" style="text;align=left;verticalAlign=top;spacingLeft=4;spacingRight=4;overflow=hidden;rotatable=0;points=[[0,0.5],[1,0.5]];portConstraint=eastwest;rounded=0;shadow=0;html=0;" parent="MP63xAjJxbPP2gbI5e4D-1" vertex="1">
          <mxGeometry y="260" width="240" height="26" as="geometry" />
        </mxCell>
        <mxCell id="MP63xAjJxbPP2gbI5e4D-11" value="" style="line;html=1;strokeWidth=1;align=left;verticalAlign=middle;spacingTop=-1;spacingLeft=3;spacingRight=3;rotatable=0;labelPosition=right;points=[];portConstraint=eastwest;" parent="MP63xAjJxbPP2gbI5e4D-1" vertex="1">
          <mxGeometry y="286" width="240" height="8" as="geometry" />
        </mxCell>
        <mxCell id="MP63xAjJxbPP2gbI5e4D-12" value="+Person()" style="text;align=left;verticalAlign=top;spacingLeft=4;spacingRight=4;overflow=hidden;rotatable=0;points=[[0,0.5],[1,0.5]];portConstraint=eastwest;" parent="MP63xAjJxbPP2gbI5e4D-1" vertex="1">
          <mxGeometry y="294" width="240" height="26" as="geometry" />
        </mxCell>
        <mxCell id="MP63xAjJxbPP2gbI5e4D-13" value="+add(p : Person): void" style="text;align=left;verticalAlign=top;spacingLeft=4;spacingRight=4;overflow=hidden;rotatable=0;points=[[0,0.5],[1,0.5]];portConstraint=eastwest;" parent="MP63xAjJxbPP2gbI5e4D-1" vertex="1">
          <mxGeometry y="320" width="240" height="26" as="geometry" />
        </mxCell>
        <mxCell id="MP63xAjJxbPP2gbI5e4D-14" value="+edit(id : String): void" style="text;align=left;verticalAlign=top;spacingLeft=4;spacingRight=4;overflow=hidden;rotatable=0;points=[[0,0.5],[1,0.5]];portConstraint=eastwest;" parent="MP63xAjJxbPP2gbI5e4D-1" vertex="1">
          <mxGeometry y="346" width="240" height="26" as="geometry" />
        </mxCell>
        <mxCell id="MP63xAjJxbPP2gbI5e4D-15" value="+remove(id : String): void" style="text;align=left;verticalAlign=top;spacingLeft=4;spacingRight=4;overflow=hidden;rotatable=0;points=[[0,0.5],[1,0.5]];portConstraint=eastwest;" parent="MP63xAjJxbPP2gbI5e4D-1" vertex="1">
          <mxGeometry y="372" width="240" height="26" as="geometry" />
        </mxCell>
        <mxCell id="MP63xAjJxbPP2gbI5e4D-16" value="+findById(id : String): Person" style="text;align=left;verticalAlign=top;spacingLeft=4;spacingRight=4;overflow=hidden;rotatable=0;points=[[0,0.5],[1,0.5]];portConstraint=eastwest;" parent="MP63xAjJxbPP2gbI5e4D-1" vertex="1">
          <mxGeometry y="398" width="240" height="26" as="geometry" />
        </mxCell>
        <mxCell id="MP63xAjJxbPP2gbI5e4D-17" value="+findByName(key : String): List&lt;Person&gt;" style="text;align=left;verticalAlign=top;spacingLeft=4;spacingRight=4;overflow=hidden;rotatable=0;points=[[0,0.5],[1,0.5]];portConstraint=eastwest;" parent="MP63xAjJxbPP2gbI5e4D-1" vertex="1">
          <mxGeometry y="424" width="240" height="26" as="geometry" />
        </mxCell>
        <mxCell id="MP63xAjJxbPP2gbI5e4D-18" value="+findByType(type : String): List&lt;Person&gt;" style="text;align=left;verticalAlign=top;spacingLeft=4;spacingRight=4;overflow=hidden;rotatable=0;points=[[0,0.5],[1,0.5]];portConstraint=eastwest;" parent="MP63xAjJxbPP2gbI5e4D-1" vertex="1">
          <mxGeometry y="450" width="240" height="26" as="geometry" />
        </mxCell>
        <mxCell id="MP63xAjJxbPP2gbI5e4D-19" value="+show(p : Person): void" style="text;align=left;verticalAlign=top;spacingLeft=4;spacingRight=4;overflow=hidden;rotatable=0;points=[[0,0.5],[1,0.5]];portConstraint=eastwest;" parent="MP63xAjJxbPP2gbI5e4D-1" vertex="1">
          <mxGeometry y="476" width="240" height="26" as="geometry" />
        </mxCell>
        <mxCell id="MP63xAjJxbPP2gbI5e4D-20" value="+addFromKeyBoard(): Person" style="text;align=left;verticalAlign=top;spacingLeft=4;spacingRight=4;overflow=hidden;rotatable=0;points=[[0,0.5],[1,0.5]];portConstraint=eastwest;" parent="MP63xAjJxbPP2gbI5e4D-1" vertex="1">
          <mxGeometry y="502" width="240" height="26" as="geometry" />
        </mxCell>
        <mxCell id="MP63xAjJxbPP2gbI5e4D-21" value="Employee" style="swimlane;fontStyle=1;align=center;verticalAlign=top;childLayout=stackLayout;horizontal=1;startSize=26;horizontalStack=0;resizeParent=1;resizeLast=0;collapsible=1;marginBottom=0;rounded=0;shadow=0;strokeWidth=1;fontSize=15;" parent="1" vertex="1">
          <mxGeometry x="10" y="634" width="250" height="296" as="geometry">
            <mxRectangle x="130" y="380" width="160" height="26" as="alternateBounds" />
          </mxGeometry>
        </mxCell>
        <mxCell id="MP63xAjJxbPP2gbI5e4D-22" value="-emID: String" style="text;align=left;verticalAlign=top;spacingLeft=4;spacingRight=4;overflow=hidden;rotatable=0;points=[[0,0.5],[1,0.5]];portConstraint=eastwest;" parent="MP63xAjJxbPP2gbI5e4D-21" vertex="1">
          <mxGeometry y="26" width="250" height="26" as="geometry" />
        </mxCell>
        <mxCell id="MP63xAjJxbPP2gbI5e4D-23" value="-role: String" style="text;align=left;verticalAlign=top;spacingLeft=4;spacingRight=4;overflow=hidden;rotatable=0;points=[[0,0.5],[1,0.5]];portConstraint=eastwest;rounded=0;shadow=0;html=0;" parent="MP63xAjJxbPP2gbI5e4D-21" vertex="1">
          <mxGeometry y="52" width="250" height="26" as="geometry" />
        </mxCell>
        <mxCell id="MP63xAjJxbPP2gbI5e4D-24" value="" style="line;html=1;strokeWidth=1;align=left;verticalAlign=middle;spacingTop=-1;spacingLeft=3;spacingRight=3;rotatable=0;labelPosition=right;points=[];portConstraint=eastwest;" parent="MP63xAjJxbPP2gbI5e4D-21" vertex="1">
          <mxGeometry y="78" width="250" height="8" as="geometry" />
        </mxCell>
        <mxCell id="MP63xAjJxbPP2gbI5e4D-25" value="+Employee()" style="text;align=left;verticalAlign=top;spacingLeft=4;spacingRight=4;overflow=hidden;rotatable=0;points=[[0,0.5],[1,0.5]];portConstraint=eastwest;fontStyle=4" parent="MP63xAjJxbPP2gbI5e4D-21" vertex="1">
          <mxGeometry y="86" width="250" height="26" as="geometry" />
        </mxCell>
        <mxCell id="MP63xAjJxbPP2gbI5e4D-29" value="+findById(id : String): Person" style="text;align=left;verticalAlign=top;spacingLeft=4;spacingRight=4;overflow=hidden;rotatable=0;points=[[0,0.5],[1,0.5]];portConstraint=eastwest;" parent="MP63xAjJxbPP2gbI5e4D-21" vertex="1">
          <mxGeometry y="112" width="250" height="26" as="geometry" />
        </mxCell>
        <mxCell id="MP63xAjJxbPP2gbI5e4D-30" value="+findByName(key : String): List&lt;Person&gt;" style="text;align=left;verticalAlign=top;spacingLeft=4;spacingRight=4;overflow=hidden;rotatable=0;points=[[0,0.5],[1,0.5]];portConstraint=eastwest;" parent="MP63xAjJxbPP2gbI5e4D-21" vertex="1">
          <mxGeometry y="138" width="250" height="26" as="geometry" />
        </mxCell>
        <mxCell id="MP63xAjJxbPP2gbI5e4D-31" value="+findByType(type : String): List&lt;Person&gt;" style="text;align=left;verticalAlign=top;spacingLeft=4;spacingRight=4;overflow=hidden;rotatable=0;points=[[0,0.5],[1,0.5]];portConstraint=eastwest;" parent="MP63xAjJxbPP2gbI5e4D-21" vertex="1">
          <mxGeometry y="164" width="250" height="26" as="geometry" />
        </mxCell>
        <mxCell id="MP63xAjJxbPP2gbI5e4D-32" value="+getAll() : List&lt;Employee&gt;" style="text;align=left;verticalAlign=top;spacingLeft=4;spacingRight=4;overflow=hidden;rotatable=0;points=[[0,0.5],[1,0.5]];portConstraint=eastwest;" parent="MP63xAjJxbPP2gbI5e4D-21" vertex="1">
          <mxGeometry y="190" width="250" height="26" as="geometry" />
        </mxCell>
        <mxCell id="MP63xAjJxbPP2gbI5e4D-33" value="+addFromKeyBoard(): Person" style="text;align=left;verticalAlign=top;spacingLeft=4;spacingRight=4;overflow=hidden;rotatable=0;points=[[0,0.5],[1,0.5]];portConstraint=eastwest;" parent="MP63xAjJxbPP2gbI5e4D-21" vertex="1">
          <mxGeometry y="216" width="250" height="26" as="geometry" />
        </mxCell>
        <mxCell id="MP63xAjJxbPP2gbI5e4D-34" value="+show(p : Person): void" style="text;align=left;verticalAlign=top;spacingLeft=4;spacingRight=4;overflow=hidden;rotatable=0;points=[[0,0.5],[1,0.5]];portConstraint=eastwest;" parent="MP63xAjJxbPP2gbI5e4D-21" vertex="1">
          <mxGeometry y="242" width="250" height="26" as="geometry" />
        </mxCell>
        <mxCell id="MP63xAjJxbPP2gbI5e4D-35" value="" style="endArrow=block;endSize=10;endFill=0;shadow=0;strokeWidth=1;rounded=0;edgeStyle=elbowEdgeStyle;elbow=vertical;" parent="1" source="MP63xAjJxbPP2gbI5e4D-21" target="MP63xAjJxbPP2gbI5e4D-1" edge="1">
          <mxGeometry width="160" relative="1" as="geometry">
            <mxPoint x="200" y="203" as="sourcePoint" />
            <mxPoint x="200" y="203" as="targetPoint" />
          </mxGeometry>
        </mxCell>
        <mxCell id="MP63xAjJxbPP2gbI5e4D-36" value="Customer" style="swimlane;fontStyle=1;align=center;verticalAlign=top;childLayout=stackLayout;horizontal=1;startSize=26;horizontalStack=0;resizeParent=1;resizeLast=0;collapsible=1;marginBottom=0;rounded=0;shadow=0;strokeWidth=1;fontSize=15;" parent="1" vertex="1">
          <mxGeometry x="360" y="620" width="260" height="438" as="geometry">
            <mxRectangle x="340" y="380" width="170" height="26" as="alternateBounds" />
          </mxGeometry>
        </mxCell>
        <mxCell id="MP63xAjJxbPP2gbI5e4D-37" value="-cusID: String" style="text;align=left;verticalAlign=top;spacingLeft=4;spacingRight=4;overflow=hidden;rotatable=0;points=[[0,0.5],[1,0.5]];portConstraint=eastwest;" parent="MP63xAjJxbPP2gbI5e4D-36" vertex="1">
          <mxGeometry y="26" width="260" height="26" as="geometry" />
        </mxCell>
        <mxCell id="MP63xAjJxbPP2gbI5e4D-38" value="-kindOfCustomer: String" style="text;align=left;verticalAlign=top;spacingLeft=4;spacingRight=4;overflow=hidden;rotatable=0;points=[[0,0.5],[1,0.5]];portConstraint=eastwest;" parent="MP63xAjJxbPP2gbI5e4D-36" vertex="1">
          <mxGeometry y="52" width="260" height="26" as="geometry" />
        </mxCell>
        <mxCell id="MP63xAjJxbPP2gbI5e4D-39" value="-email: String" style="text;align=left;verticalAlign=top;spacingLeft=4;spacingRight=4;overflow=hidden;rotatable=0;points=[[0,0.5],[1,0.5]];portConstraint=eastwest;" parent="MP63xAjJxbPP2gbI5e4D-36" vertex="1">
          <mxGeometry y="78" width="260" height="26" as="geometry" />
        </mxCell>
        <mxCell id="MP63xAjJxbPP2gbI5e4D-40" value="-phoneNumber: String" style="text;align=left;verticalAlign=top;spacingLeft=4;spacingRight=4;overflow=hidden;rotatable=0;points=[[0,0.5],[1,0.5]];portConstraint=eastwest;" parent="MP63xAjJxbPP2gbI5e4D-36" vertex="1">
          <mxGeometry y="104" width="260" height="26" as="geometry" />
        </mxCell>
        <mxCell id="MP63xAjJxbPP2gbI5e4D-41" value="" style="line;html=1;strokeWidth=1;align=left;verticalAlign=middle;spacingTop=-1;spacingLeft=3;spacingRight=3;rotatable=0;labelPosition=right;points=[];portConstraint=eastwest;" parent="MP63xAjJxbPP2gbI5e4D-36" vertex="1">
          <mxGeometry y="130" width="260" height="8" as="geometry" />
        </mxCell>
        <mxCell id="MP63xAjJxbPP2gbI5e4D-42" value="+Customer()" style="text;html=1;align=left;verticalAlign=middle;resizable=0;points=[];autosize=1;strokeColor=none;fillColor=none;fontSize=13;" parent="MP63xAjJxbPP2gbI5e4D-36" vertex="1">
          <mxGeometry y="138" width="260" height="30" as="geometry" />
        </mxCell>
        <mxCell id="MP63xAjJxbPP2gbI5e4D-43" value="+add(p : Person): void" style="text;html=1;align=left;verticalAlign=middle;resizable=0;points=[];autosize=1;strokeColor=none;fillColor=none;fontSize=13;" parent="MP63xAjJxbPP2gbI5e4D-36" vertex="1">
          <mxGeometry y="168" width="260" height="30" as="geometry" />
        </mxCell>
        <mxCell id="MP63xAjJxbPP2gbI5e4D-44" value="+edit(id : String): void" style="text;html=1;align=left;verticalAlign=middle;resizable=0;points=[];autosize=1;strokeColor=none;fillColor=none;fontSize=13;" parent="MP63xAjJxbPP2gbI5e4D-36" vertex="1">
          <mxGeometry y="198" width="260" height="30" as="geometry" />
        </mxCell>
        <mxCell id="MP63xAjJxbPP2gbI5e4D-45" value="+remove(id : String): void" style="text;html=1;align=left;verticalAlign=middle;resizable=0;points=[];autosize=1;strokeColor=none;fillColor=none;fontSize=13;" parent="MP63xAjJxbPP2gbI5e4D-36" vertex="1">
          <mxGeometry y="228" width="260" height="30" as="geometry" />
        </mxCell>
        <mxCell id="MP63xAjJxbPP2gbI5e4D-46" value="&lt;span style=&quot;font-size: 12px;&quot;&gt;+findById(id : String): Person&lt;/span&gt;" style="text;html=1;align=left;verticalAlign=middle;resizable=0;points=[];autosize=1;strokeColor=none;fillColor=none;fontSize=13;" parent="MP63xAjJxbPP2gbI5e4D-36" vertex="1">
          <mxGeometry y="258" width="260" height="30" as="geometry" />
        </mxCell>
        <mxCell id="MP63xAjJxbPP2gbI5e4D-47" value="&lt;span style=&quot;font-size: 12px;&quot;&gt;+findByName(key : String): List&amp;lt;Person&amp;gt;&lt;/span&gt;" style="text;html=1;align=left;verticalAlign=middle;resizable=0;points=[];autosize=1;strokeColor=none;fillColor=none;fontSize=13;" parent="MP63xAjJxbPP2gbI5e4D-36" vertex="1">
          <mxGeometry y="288" width="260" height="30" as="geometry" />
        </mxCell>
        <mxCell id="MP63xAjJxbPP2gbI5e4D-48" value="&lt;span style=&quot;font-size: 12px;&quot;&gt;+findByType(type : String): List&amp;lt;Person&amp;gt;&lt;/span&gt;" style="text;html=1;align=left;verticalAlign=middle;resizable=0;points=[];autosize=1;strokeColor=none;fillColor=none;fontSize=13;" parent="MP63xAjJxbPP2gbI5e4D-36" vertex="1">
          <mxGeometry y="318" width="260" height="30" as="geometry" />
        </mxCell>
        <mxCell id="MP63xAjJxbPP2gbI5e4D-49" value="&lt;span style=&quot;font-size: 12px;&quot;&gt;+getAll() : List&amp;lt;Customer&amp;gt;&lt;/span&gt;" style="text;html=1;align=left;verticalAlign=middle;resizable=0;points=[];autosize=1;strokeColor=none;fillColor=none;fontSize=13;" parent="MP63xAjJxbPP2gbI5e4D-36" vertex="1">
          <mxGeometry y="348" width="260" height="30" as="geometry" />
        </mxCell>
        <mxCell id="MP63xAjJxbPP2gbI5e4D-50" value="&lt;span style=&quot;font-size: 12px;&quot;&gt;+addFromKeyBoard(): Person&lt;/span&gt;" style="text;html=1;align=left;verticalAlign=middle;resizable=0;points=[];autosize=1;strokeColor=none;fillColor=none;fontSize=13;" parent="MP63xAjJxbPP2gbI5e4D-36" vertex="1">
          <mxGeometry y="378" width="260" height="30" as="geometry" />
        </mxCell>
        <mxCell id="MP63xAjJxbPP2gbI5e4D-51" value="&lt;span style=&quot;font-size: 12px;&quot;&gt;+show(p : Person): void&lt;/span&gt;" style="text;html=1;align=left;verticalAlign=middle;resizable=0;points=[];autosize=1;strokeColor=none;fillColor=none;fontSize=13;" parent="MP63xAjJxbPP2gbI5e4D-36" vertex="1">
          <mxGeometry y="408" width="260" height="30" as="geometry" />
        </mxCell>
        <mxCell id="MP63xAjJxbPP2gbI5e4D-52" value="" style="endArrow=block;endSize=10;endFill=0;shadow=0;strokeWidth=1;rounded=0;edgeStyle=elbowEdgeStyle;elbow=vertical;" parent="1" source="MP63xAjJxbPP2gbI5e4D-36" target="MP63xAjJxbPP2gbI5e4D-1" edge="1">
          <mxGeometry width="160" relative="1" as="geometry">
            <mxPoint x="210" y="373" as="sourcePoint" />
            <mxPoint x="310" y="271" as="targetPoint" />
            <Array as="points">
              <mxPoint x="280" y="530" />
              <mxPoint x="300" y="550" />
              <mxPoint x="340" y="560" />
            </Array>
          </mxGeometry>
        </mxCell>
        <mxCell id="MP63xAjJxbPP2gbI5e4D-53" value="Borrowing" style="swimlane;fontStyle=1;align=center;verticalAlign=top;childLayout=stackLayout;horizontal=1;startSize=26;horizontalStack=0;resizeParent=1;resizeLast=0;collapsible=1;marginBottom=0;rounded=0;shadow=0;strokeWidth=1;fontSize=15;" parent="1" vertex="1">
          <mxGeometry x="110" y="1130" width="340" height="494" as="geometry">
            <mxRectangle x="340" y="380" width="170" height="26" as="alternateBounds" />
          </mxGeometry>
        </mxCell>
        <mxCell id="MP63xAjJxbPP2gbI5e4D-54" value="-brID : String" style="text;align=left;verticalAlign=top;spacingLeft=4;spacingRight=4;overflow=hidden;rotatable=0;points=[[0,0.5],[1,0.5]];portConstraint=eastwest;" parent="MP63xAjJxbPP2gbI5e4D-53" vertex="1">
          <mxGeometry y="26" width="340" height="26" as="geometry" />
        </mxCell>
        <mxCell id="MP63xAjJxbPP2gbI5e4D-55" value="-employee: Employee" style="text;align=left;verticalAlign=top;spacingLeft=4;spacingRight=4;overflow=hidden;rotatable=0;points=[[0,0.5],[1,0.5]];portConstraint=eastwest;" parent="MP63xAjJxbPP2gbI5e4D-53" vertex="1">
          <mxGeometry y="52" width="340" height="26" as="geometry" />
        </mxCell>
        <mxCell id="MP63xAjJxbPP2gbI5e4D-56" value="-price: long" style="text;align=left;verticalAlign=top;spacingLeft=4;spacingRight=4;overflow=hidden;rotatable=0;points=[[0,0.5],[1,0.5]];portConstraint=eastwest;" parent="MP63xAjJxbPP2gbI5e4D-53" vertex="1">
          <mxGeometry y="78" width="340" height="26" as="geometry" />
        </mxCell>
        <mxCell id="MP63xAjJxbPP2gbI5e4D-57" value="-person: Person" style="text;align=left;verticalAlign=top;spacingLeft=4;spacingRight=4;overflow=hidden;rotatable=0;points=[[0,0.5],[1,0.5]];portConstraint=eastwest;" parent="MP63xAjJxbPP2gbI5e4D-53" vertex="1">
          <mxGeometry y="104" width="340" height="26" as="geometry" />
        </mxCell>
        <mxCell id="MP63xAjJxbPP2gbI5e4D-58" value="-states: List&lt;Swimwear&gt;" style="text;align=left;verticalAlign=top;spacingLeft=4;spacingRight=4;overflow=hidden;rotatable=0;points=[[0,0.5],[1,0.5]];portConstraint=eastwest;" parent="MP63xAjJxbPP2gbI5e4D-53" vertex="1">
          <mxGeometry y="130" width="340" height="26" as="geometry" />
        </mxCell>
        <mxCell id="MP63xAjJxbPP2gbI5e4D-59" value="" style="line;html=1;strokeWidth=1;align=left;verticalAlign=middle;spacingTop=-1;spacingLeft=3;spacingRight=3;rotatable=0;labelPosition=right;points=[];portConstraint=eastwest;" parent="MP63xAjJxbPP2gbI5e4D-53" vertex="1">
          <mxGeometry y="156" width="340" height="8" as="geometry" />
        </mxCell>
        <mxCell id="MP63xAjJxbPP2gbI5e4D-60" value="+Borrowing()" style="text;html=1;align=left;verticalAlign=middle;resizable=0;points=[];autosize=1;strokeColor=none;fillColor=none;fontSize=13;" parent="MP63xAjJxbPP2gbI5e4D-53" vertex="1">
          <mxGeometry y="164" width="340" height="30" as="geometry" />
        </mxCell>
        <mxCell id="MP63xAjJxbPP2gbI5e4D-61" value="+add(b : Borrowing): void" style="text;html=1;align=left;verticalAlign=middle;resizable=0;points=[];autosize=1;strokeColor=none;fillColor=none;fontSize=13;" parent="MP63xAjJxbPP2gbI5e4D-53" vertex="1">
          <mxGeometry y="194" width="340" height="30" as="geometry" />
        </mxCell>
        <mxCell id="MP63xAjJxbPP2gbI5e4D-62" value="+edit(id : String): void" style="text;html=1;align=left;verticalAlign=middle;resizable=0;points=[];autosize=1;strokeColor=none;fillColor=none;fontSize=13;" parent="MP63xAjJxbPP2gbI5e4D-53" vertex="1">
          <mxGeometry y="224" width="340" height="30" as="geometry" />
        </mxCell>
        <mxCell id="MP63xAjJxbPP2gbI5e4D-63" value="+remove(id : String): void" style="text;html=1;align=left;verticalAlign=middle;resizable=0;points=[];autosize=1;strokeColor=none;fillColor=none;fontSize=13;" parent="MP63xAjJxbPP2gbI5e4D-53" vertex="1">
          <mxGeometry y="254" width="340" height="30" as="geometry" />
        </mxCell>
        <mxCell id="MP63xAjJxbPP2gbI5e4D-64" value="&lt;span style=&quot;font-size: 12px;&quot;&gt;+findById(id : String): Borrowing&lt;/span&gt;" style="text;html=1;align=left;verticalAlign=middle;resizable=0;points=[];autosize=1;strokeColor=none;fillColor=none;fontSize=13;" parent="MP63xAjJxbPP2gbI5e4D-53" vertex="1">
          <mxGeometry y="284" width="340" height="30" as="geometry" />
        </mxCell>
        <mxCell id="MP63xAjJxbPP2gbI5e4D-65" value="&lt;span style=&quot;font-size: 12px;&quot;&gt;+sortByCustomerName(): List&amp;lt;Borrowing&amp;gt;&lt;/span&gt;" style="text;html=1;align=left;verticalAlign=middle;resizable=0;points=[];autosize=1;strokeColor=none;fillColor=none;fontSize=13;" parent="MP63xAjJxbPP2gbI5e4D-53" vertex="1">
          <mxGeometry y="314" width="340" height="30" as="geometry" />
        </mxCell>
        <mxCell id="MP63xAjJxbPP2gbI5e4D-66" value="&lt;span style=&quot;font-size: 12px;&quot;&gt;+sortByQuantity(): List&amp;lt;Borrowing&amp;gt;&lt;/span&gt;" style="text;html=1;align=left;verticalAlign=middle;resizable=0;points=[];autosize=1;strokeColor=none;fillColor=none;fontSize=13;" parent="MP63xAjJxbPP2gbI5e4D-53" vertex="1">
          <mxGeometry y="344" width="340" height="30" as="geometry" />
        </mxCell>
        <mxCell id="MP63xAjJxbPP2gbI5e4D-67" value="&lt;span style=&quot;font-size: 12px;&quot;&gt;+searchByCustomerName(name : String): List&amp;lt;Borrowing&amp;gt;&lt;/span&gt;" style="text;html=1;align=left;verticalAlign=middle;resizable=0;points=[];autosize=1;strokeColor=none;fillColor=none;fontSize=13;" parent="MP63xAjJxbPP2gbI5e4D-53" vertex="1">
          <mxGeometry y="374" width="340" height="30" as="geometry" />
        </mxCell>
        <mxCell id="MP63xAjJxbPP2gbI5e4D-68" value="&lt;span style=&quot;font-size: 12px;&quot;&gt;+getAll() : List&amp;lt;Borrowing&amp;gt;&lt;/span&gt;" style="text;html=1;align=left;verticalAlign=middle;resizable=0;points=[];autosize=1;strokeColor=none;fillColor=none;fontSize=13;" parent="MP63xAjJxbPP2gbI5e4D-53" vertex="1">
          <mxGeometry y="404" width="340" height="30" as="geometry" />
        </mxCell>
        <mxCell id="MP63xAjJxbPP2gbI5e4D-69" value="&lt;span style=&quot;font-size: 12px;&quot;&gt;+addFromKeyBoard(): Borrowing&lt;/span&gt;" style="text;html=1;align=left;verticalAlign=middle;resizable=0;points=[];autosize=1;strokeColor=none;fillColor=none;fontSize=13;" parent="MP63xAjJxbPP2gbI5e4D-53" vertex="1">
          <mxGeometry y="434" width="340" height="30" as="geometry" />
        </mxCell>
        <mxCell id="MP63xAjJxbPP2gbI5e4D-70" value="&lt;span style=&quot;font-size: 12px;&quot;&gt;+show(Borrowing): void&lt;/span&gt;" style="text;html=1;align=left;verticalAlign=middle;resizable=0;points=[];autosize=1;strokeColor=none;fillColor=none;fontSize=13;" parent="MP63xAjJxbPP2gbI5e4D-53" vertex="1">
          <mxGeometry y="464" width="340" height="30" as="geometry" />
        </mxCell>
        <mxCell id="MP63xAjJxbPP2gbI5e4D-71" value="Bill" style="swimlane;fontStyle=1;align=center;verticalAlign=top;childLayout=stackLayout;horizontal=1;startSize=26;horizontalStack=0;resizeParent=1;resizeLast=0;collapsible=1;marginBottom=0;rounded=0;shadow=0;strokeWidth=1;fontSize=15;" parent="1" vertex="1">
          <mxGeometry x="-440" y="1160" width="340" height="380" as="geometry">
            <mxRectangle x="340" y="380" width="170" height="26" as="alternateBounds" />
          </mxGeometry>
        </mxCell>
        <mxCell id="MP63xAjJxbPP2gbI5e4D-72" value="-billID : String" style="text;align=left;verticalAlign=top;spacingLeft=4;spacingRight=4;overflow=hidden;rotatable=0;points=[[0,0.5],[1,0.5]];portConstraint=eastwest;" parent="MP63xAjJxbPP2gbI5e4D-71" vertex="1">
          <mxGeometry y="26" width="340" height="26" as="geometry" />
        </mxCell>
        <mxCell id="MP63xAjJxbPP2gbI5e4D-73" value="-startDate: date" style="text;align=left;verticalAlign=top;spacingLeft=4;spacingRight=4;overflow=hidden;rotatable=0;points=[[0,0.5],[1,0.5]];portConstraint=eastwest;" parent="MP63xAjJxbPP2gbI5e4D-71" vertex="1">
          <mxGeometry y="52" width="340" height="26" as="geometry" />
        </mxCell>
        <mxCell id="MP63xAjJxbPP2gbI5e4D-74" value="-dueDate: date" style="text;align=left;verticalAlign=top;spacingLeft=4;spacingRight=4;overflow=hidden;rotatable=0;points=[[0,0.5],[1,0.5]];portConstraint=eastwest;" parent="MP63xAjJxbPP2gbI5e4D-71" vertex="1">
          <mxGeometry y="78" width="340" height="26" as="geometry" />
        </mxCell>
        <mxCell id="MP63xAjJxbPP2gbI5e4D-75" value="-desposit" style="text;align=left;verticalAlign=top;spacingLeft=4;spacingRight=4;overflow=hidden;rotatable=0;points=[[0,0.5],[1,0.5]];portConstraint=eastwest;" parent="MP63xAjJxbPP2gbI5e4D-71" vertex="1">
          <mxGeometry y="104" width="340" height="26" as="geometry" />
        </mxCell>
        <mxCell id="MP63xAjJxbPP2gbI5e4D-76" value="-states: List&lt;Swimwear&gt;" style="text;align=left;verticalAlign=top;spacingLeft=4;spacingRight=4;overflow=hidden;rotatable=0;points=[[0,0.5],[1,0.5]];portConstraint=eastwest;" parent="MP63xAjJxbPP2gbI5e4D-71" vertex="1">
          <mxGeometry y="130" width="340" height="26" as="geometry" />
        </mxCell>
        <mxCell id="MP63xAjJxbPP2gbI5e4D-77" value="" style="line;html=1;strokeWidth=1;align=left;verticalAlign=middle;spacingTop=-1;spacingLeft=3;spacingRight=3;rotatable=0;labelPosition=right;points=[];portConstraint=eastwest;" parent="MP63xAjJxbPP2gbI5e4D-71" vertex="1">
          <mxGeometry y="156" width="340" height="8" as="geometry" />
        </mxCell>
        <mxCell id="MP63xAjJxbPP2gbI5e4D-78" value="+Bill()" style="text;html=1;align=left;verticalAlign=middle;resizable=0;points=[];autosize=1;strokeColor=none;fillColor=none;fontSize=13;" parent="MP63xAjJxbPP2gbI5e4D-71" vertex="1">
          <mxGeometry y="164" width="340" height="30" as="geometry" />
        </mxCell>
        <mxCell id="MP63xAjJxbPP2gbI5e4D-79" value="+getById(id : String): Bill" style="text;html=1;align=left;verticalAlign=middle;resizable=0;points=[];autosize=1;strokeColor=none;fillColor=none;fontSize=13;" parent="MP63xAjJxbPP2gbI5e4D-71" vertex="1">
          <mxGeometry y="194" width="340" height="30" as="geometry" />
        </mxCell>
        <mxCell id="MP63xAjJxbPP2gbI5e4D-80" value="+getBorrowing(moreOrLess: String): List&amp;lt;Bill&amp;gt;" style="text;html=1;align=left;verticalAlign=middle;resizable=0;points=[];autosize=1;strokeColor=none;fillColor=none;fontSize=13;" parent="MP63xAjJxbPP2gbI5e4D-71" vertex="1">
          <mxGeometry y="224" width="340" height="30" as="geometry" />
        </mxCell>
        <mxCell id="MP63xAjJxbPP2gbI5e4D-81" value="+getBorrowingPerson(moreOrLess: String): List&amp;lt;Bill&amp;gt;" style="text;html=1;align=left;verticalAlign=middle;resizable=0;points=[];autosize=1;strokeColor=none;fillColor=none;fontSize=13;" parent="MP63xAjJxbPP2gbI5e4D-71" vertex="1">
          <mxGeometry y="254" width="340" height="30" as="geometry" />
        </mxCell>
        <mxCell id="MP63xAjJxbPP2gbI5e4D-82" value="&lt;span style=&quot;font-size: 12px;&quot;&gt;+getAll() : List&amp;lt;Bill&amp;gt;&lt;/span&gt;" style="text;html=1;align=left;verticalAlign=middle;resizable=0;points=[];autosize=1;strokeColor=none;fillColor=none;fontSize=13;" parent="MP63xAjJxbPP2gbI5e4D-71" vertex="1">
          <mxGeometry y="284" width="340" height="30" as="geometry" />
        </mxCell>
        <mxCell id="MP63xAjJxbPP2gbI5e4D-83" value="&lt;span style=&quot;font-size: 12px;&quot;&gt;+addFromKeyBoard(): Bill&lt;/span&gt;" style="text;html=1;align=left;verticalAlign=middle;resizable=0;points=[];autosize=1;strokeColor=none;fillColor=none;fontSize=13;" parent="MP63xAjJxbPP2gbI5e4D-71" vertex="1">
          <mxGeometry y="314" width="340" height="30" as="geometry" />
        </mxCell>
        <mxCell id="MP63xAjJxbPP2gbI5e4D-84" value="&lt;span style=&quot;font-size: 12px;&quot;&gt;+show(b: Bill): void&lt;/span&gt;" style="text;html=1;align=left;verticalAlign=middle;resizable=0;points=[];autosize=1;strokeColor=none;fillColor=none;fontSize=13;" parent="MP63xAjJxbPP2gbI5e4D-71" vertex="1">
          <mxGeometry y="344" width="340" height="30" as="geometry" />
        </mxCell>
        <mxCell id="MP63xAjJxbPP2gbI5e4D-85" value="" style="rhombus;whiteSpace=wrap;html=1;fontSize=15;fillColor=#1A1A1A;" parent="1" vertex="1">
          <mxGeometry x="-100" y="1240" width="40" height="20" as="geometry" />
        </mxCell>
        <mxCell id="MP63xAjJxbPP2gbI5e4D-86" value="" style="endArrow=none;html=1;rounded=0;fontSize=15;entryX=0;entryY=0.5;entryDx=0;entryDy=0;" parent="1" target="MP63xAjJxbPP2gbI5e4D-57" edge="1">
          <mxGeometry width="50" height="50" relative="1" as="geometry">
            <mxPoint x="-60" y="1250" as="sourcePoint" />
            <mxPoint x="-10" y="1200" as="targetPoint" />
          </mxGeometry>
        </mxCell>
        <mxCell id="MP63xAjJxbPP2gbI5e4D-87" value="" style="rhombus;whiteSpace=wrap;html=1;fontSize=15;" parent="1" vertex="1">
          <mxGeometry x="190" y="1100" width="20" height="30" as="geometry" />
        </mxCell>
        <mxCell id="MP63xAjJxbPP2gbI5e4D-88" value="" style="endArrow=none;html=1;rounded=0;fontSize=15;exitX=0.5;exitY=0;exitDx=0;exitDy=0;" parent="1" source="MP63xAjJxbPP2gbI5e4D-87" edge="1">
          <mxGeometry width="50" height="50" relative="1" as="geometry">
            <mxPoint x="30" y="1130" as="sourcePoint" />
            <mxPoint x="130" y="930" as="targetPoint" />
            <Array as="points">
              <mxPoint x="200" y="1080" />
              <mxPoint x="130" y="1080" />
            </Array>
          </mxGeometry>
        </mxCell>
        <mxCell id="MP63xAjJxbPP2gbI5e4D-89" value="" style="rhombus;whiteSpace=wrap;html=1;fontSize=15;" parent="1" vertex="1">
          <mxGeometry x="310" y="1100" width="20" height="30" as="geometry" />
        </mxCell>
        <mxCell id="MP63xAjJxbPP2gbI5e4D-90" value="" style="endArrow=none;html=1;rounded=0;fontSize=15;" parent="1" source="MP63xAjJxbPP2gbI5e4D-89" edge="1">
          <mxGeometry width="50" height="50" relative="1" as="geometry">
            <mxPoint x="290" y="1080" as="sourcePoint" />
            <mxPoint x="480" y="1058" as="targetPoint" />
            <Array as="points">
              <mxPoint x="320" y="1080" />
              <mxPoint x="480" y="1080" />
            </Array>
          </mxGeometry>
        </mxCell>
        <mxCell id="MP63xAjJxbPP2gbI5e4D-91" value="SwimwearState" style="swimlane;fontStyle=1;align=center;verticalAlign=top;childLayout=stackLayout;horizontal=1;startSize=26;horizontalStack=0;resizeParent=1;resizeLast=0;collapsible=1;marginBottom=0;rounded=0;shadow=0;strokeWidth=1;fontSize=15;" parent="1" vertex="1">
          <mxGeometry x="680" y="1190" width="270" height="434" as="geometry">
            <mxRectangle x="340" y="380" width="170" height="26" as="alternateBounds" />
          </mxGeometry>
        </mxCell>
        <mxCell id="MP63xAjJxbPP2gbI5e4D-92" value="-SwimStateId: String" style="text;align=left;verticalAlign=top;spacingLeft=4;spacingRight=4;overflow=hidden;rotatable=0;points=[[0,0.5],[1,0.5]];portConstraint=eastwest;" parent="MP63xAjJxbPP2gbI5e4D-91" vertex="1">
          <mxGeometry y="26" width="270" height="26" as="geometry" />
        </mxCell>
        <mxCell id="MP63xAjJxbPP2gbI5e4D-93" value="-name: String" style="text;align=left;verticalAlign=top;spacingLeft=4;spacingRight=4;overflow=hidden;rotatable=0;points=[[0,0.5],[1,0.5]];portConstraint=eastwest;" parent="MP63xAjJxbPP2gbI5e4D-91" vertex="1">
          <mxGeometry y="52" width="270" height="26" as="geometry" />
        </mxCell>
        <mxCell id="MP63xAjJxbPP2gbI5e4D-94" value="-swimwear: Swimwear" style="text;align=left;verticalAlign=top;spacingLeft=4;spacingRight=4;overflow=hidden;rotatable=0;points=[[0,0.5],[1,0.5]];portConstraint=eastwest;" parent="MP63xAjJxbPP2gbI5e4D-91" vertex="1">
          <mxGeometry y="78" width="270" height="26" as="geometry" />
        </mxCell>
        <mxCell id="MP63xAjJxbPP2gbI5e4D-95" value="-quantity: int" style="text;align=left;verticalAlign=top;spacingLeft=4;spacingRight=4;overflow=hidden;rotatable=0;points=[[0,0.5],[1,0.5]];portConstraint=eastwest;" parent="MP63xAjJxbPP2gbI5e4D-91" vertex="1">
          <mxGeometry y="104" width="270" height="28" as="geometry" />
        </mxCell>
        <mxCell id="MP63xAjJxbPP2gbI5e4D-96" value="-price: long" style="text;align=left;verticalAlign=top;spacingLeft=4;spacingRight=4;overflow=hidden;rotatable=0;points=[[0,0.5],[1,0.5]];portConstraint=eastwest;" parent="MP63xAjJxbPP2gbI5e4D-91" vertex="1">
          <mxGeometry y="132" width="270" height="28" as="geometry" />
        </mxCell>
        <mxCell id="MP63xAjJxbPP2gbI5e4D-97" value="-state: String" style="text;align=left;verticalAlign=top;spacingLeft=4;spacingRight=4;overflow=hidden;rotatable=0;points=[[0,0.5],[1,0.5]];portConstraint=eastwest;" parent="MP63xAjJxbPP2gbI5e4D-91" vertex="1">
          <mxGeometry y="160" width="270" height="26" as="geometry" />
        </mxCell>
        <mxCell id="MP63xAjJxbPP2gbI5e4D-98" value="" style="line;html=1;strokeWidth=1;align=left;verticalAlign=middle;spacingTop=-1;spacingLeft=3;spacingRight=3;rotatable=0;labelPosition=right;points=[];portConstraint=eastwest;" parent="MP63xAjJxbPP2gbI5e4D-91" vertex="1">
          <mxGeometry y="186" width="270" height="8" as="geometry" />
        </mxCell>
        <mxCell id="MP63xAjJxbPP2gbI5e4D-99" value="+SwimwearState()" style="text;html=1;align=left;verticalAlign=middle;resizable=0;points=[];autosize=1;strokeColor=none;fillColor=none;fontSize=13;" parent="MP63xAjJxbPP2gbI5e4D-91" vertex="1">
          <mxGeometry y="194" width="270" height="30" as="geometry" />
        </mxCell>
        <mxCell id="MP63xAjJxbPP2gbI5e4D-100" value="+add(b : SwimwearState): void" style="text;html=1;align=left;verticalAlign=middle;resizable=0;points=[];autosize=1;strokeColor=none;fillColor=none;fontSize=13;" parent="MP63xAjJxbPP2gbI5e4D-91" vertex="1">
          <mxGeometry y="224" width="270" height="30" as="geometry" />
        </mxCell>
        <mxCell id="MP63xAjJxbPP2gbI5e4D-101" value="+edit(id : String): void" style="text;html=1;align=left;verticalAlign=middle;resizable=0;points=[];autosize=1;strokeColor=none;fillColor=none;fontSize=13;" parent="MP63xAjJxbPP2gbI5e4D-91" vertex="1">
          <mxGeometry y="254" width="270" height="30" as="geometry" />
        </mxCell>
        <mxCell id="MP63xAjJxbPP2gbI5e4D-102" value="+remove(id : String): void" style="text;html=1;align=left;verticalAlign=middle;resizable=0;points=[];autosize=1;strokeColor=none;fillColor=none;fontSize=13;" parent="MP63xAjJxbPP2gbI5e4D-91" vertex="1">
          <mxGeometry y="284" width="270" height="30" as="geometry" />
        </mxCell>
        <mxCell id="MP63xAjJxbPP2gbI5e4D-103" value="+getById(id : String): SwimwearState" style="text;html=1;align=left;verticalAlign=middle;resizable=0;points=[];autosize=1;strokeColor=none;fillColor=none;fontSize=13;" parent="MP63xAjJxbPP2gbI5e4D-91" vertex="1">
          <mxGeometry y="314" width="270" height="30" as="geometry" />
        </mxCell>
        <mxCell id="MP63xAjJxbPP2gbI5e4D-104" value="&lt;span style=&quot;font-size: 12px;&quot;&gt;+getAll() : List&amp;lt;&lt;/span&gt;SwimwearState&lt;span style=&quot;font-size: 12px;&quot;&gt;&amp;gt;&lt;/span&gt;" style="text;html=1;align=left;verticalAlign=middle;resizable=0;points=[];autosize=1;strokeColor=none;fillColor=none;fontSize=13;" parent="MP63xAjJxbPP2gbI5e4D-91" vertex="1">
          <mxGeometry y="344" width="270" height="30" as="geometry" />
        </mxCell>
        <mxCell id="MP63xAjJxbPP2gbI5e4D-105" value="&lt;span style=&quot;font-size: 12px;&quot;&gt;+addFromKeyBoard():&amp;nbsp;&lt;/span&gt;SwimwearState" style="text;html=1;align=left;verticalAlign=middle;resizable=0;points=[];autosize=1;strokeColor=none;fillColor=none;fontSize=13;" parent="MP63xAjJxbPP2gbI5e4D-91" vertex="1">
          <mxGeometry y="374" width="270" height="30" as="geometry" />
        </mxCell>
        <mxCell id="MP63xAjJxbPP2gbI5e4D-106" value="&lt;span style=&quot;font-size: 12px;&quot;&gt;+show(s:&lt;/span&gt;SwimwearState&lt;span style=&quot;font-size: 12px;&quot;&gt;): void&lt;/span&gt;" style="text;html=1;align=left;verticalAlign=middle;resizable=0;points=[];autosize=1;strokeColor=none;fillColor=none;fontSize=13;" parent="MP63xAjJxbPP2gbI5e4D-91" vertex="1">
          <mxGeometry y="404" width="270" height="30" as="geometry" />
        </mxCell>
        <mxCell id="MP63xAjJxbPP2gbI5e4D-107" value="Swimwear" style="swimlane;fontStyle=1;align=center;verticalAlign=top;childLayout=stackLayout;horizontal=1;startSize=26;horizontalStack=0;resizeParent=1;resizeLast=0;collapsible=1;marginBottom=0;rounded=0;shadow=0;strokeWidth=1;fontSize=15;" parent="1" vertex="1">
          <mxGeometry x="1230" y="634" width="290" height="386" as="geometry">
            <mxRectangle x="340" y="380" width="170" height="26" as="alternateBounds" />
          </mxGeometry>
        </mxCell>
        <mxCell id="MP63xAjJxbPP2gbI5e4D-108" value="-SwimwearId: String" style="text;align=left;verticalAlign=top;spacingLeft=4;spacingRight=4;overflow=hidden;rotatable=0;points=[[0,0.5],[1,0.5]];portConstraint=eastwest;" parent="MP63xAjJxbPP2gbI5e4D-107" vertex="1">
          <mxGeometry y="26" width="290" height="26" as="geometry" />
        </mxCell>
        <mxCell id="MP63xAjJxbPP2gbI5e4D-109" value="-type: String" style="text;align=left;verticalAlign=top;spacingLeft=4;spacingRight=4;overflow=hidden;rotatable=0;points=[[0,0.5],[1,0.5]];portConstraint=eastwest;" parent="MP63xAjJxbPP2gbI5e4D-107" vertex="1">
          <mxGeometry y="52" width="290" height="26" as="geometry" />
        </mxCell>
        <mxCell id="MP63xAjJxbPP2gbI5e4D-110" value="-detail: String" style="text;align=left;verticalAlign=top;spacingLeft=4;spacingRight=4;overflow=hidden;rotatable=0;points=[[0,0.5],[1,0.5]];portConstraint=eastwest;" parent="MP63xAjJxbPP2gbI5e4D-107" vertex="1">
          <mxGeometry y="78" width="290" height="26" as="geometry" />
        </mxCell>
        <mxCell id="MP63xAjJxbPP2gbI5e4D-111" value="" style="line;html=1;strokeWidth=1;align=left;verticalAlign=middle;spacingTop=-1;spacingLeft=3;spacingRight=3;rotatable=0;labelPosition=right;points=[];portConstraint=eastwest;" parent="MP63xAjJxbPP2gbI5e4D-107" vertex="1">
          <mxGeometry y="104" width="290" height="8" as="geometry" />
        </mxCell>
        <mxCell id="MP63xAjJxbPP2gbI5e4D-112" value="+Swimwear()" style="text;html=1;align=left;verticalAlign=middle;resizable=0;points=[];autosize=1;strokeColor=none;fillColor=none;fontSize=13;" parent="MP63xAjJxbPP2gbI5e4D-107" vertex="1">
          <mxGeometry y="112" width="290" height="30" as="geometry" />
        </mxCell>
        <mxCell id="MP63xAjJxbPP2gbI5e4D-113" value="+edit(id : String): void" style="text;html=1;align=left;verticalAlign=middle;resizable=0;points=[];autosize=1;strokeColor=none;fillColor=none;fontSize=13;" parent="MP63xAjJxbPP2gbI5e4D-107" vertex="1">
          <mxGeometry y="142" width="290" height="30" as="geometry" />
        </mxCell>
        <mxCell id="MP63xAjJxbPP2gbI5e4D-114" value="+remove(id : String): void" style="text;html=1;align=left;verticalAlign=middle;resizable=0;points=[];autosize=1;strokeColor=none;fillColor=none;fontSize=13;" parent="MP63xAjJxbPP2gbI5e4D-107" vertex="1">
          <mxGeometry y="172" width="290" height="30" as="geometry" />
        </mxCell>
        <mxCell id="MP63xAjJxbPP2gbI5e4D-115" value="&lt;span style=&quot;font-size: 12px;&quot;&gt;+searchDeByName(key : String): List&amp;lt;Device&amp;gt;&lt;/span&gt;" style="text;html=1;align=left;verticalAlign=middle;resizable=0;points=[];autosize=1;strokeColor=none;fillColor=none;fontSize=13;" parent="MP63xAjJxbPP2gbI5e4D-107" vertex="1">
          <mxGeometry y="202" width="290" height="30" as="geometry" />
        </mxCell>
        <mxCell id="MP63xAjJxbPP2gbI5e4D-116" value="&lt;span style=&quot;font-size: 12px;&quot;&gt;+searchDeByType(type : String): List&amp;lt;Device&amp;gt;&lt;/span&gt;" style="text;html=1;align=left;verticalAlign=middle;resizable=0;points=[];autosize=1;strokeColor=none;fillColor=none;fontSize=13;" parent="MP63xAjJxbPP2gbI5e4D-107" vertex="1">
          <mxGeometry y="232" width="290" height="30" as="geometry" />
        </mxCell>
        <mxCell id="MP63xAjJxbPP2gbI5e4D-117" value="&lt;span style=&quot;font-size: 12px;&quot;&gt;+getById(id: String): Swimwear&lt;/span&gt;" style="text;html=1;align=left;verticalAlign=middle;resizable=0;points=[];autosize=1;strokeColor=none;fillColor=none;fontSize=13;" parent="MP63xAjJxbPP2gbI5e4D-107" vertex="1">
          <mxGeometry y="262" width="290" height="30" as="geometry" />
        </mxCell>
        <mxCell id="MP63xAjJxbPP2gbI5e4D-118" value="&lt;span style=&quot;font-size: 12px;&quot;&gt;+getAll() : List&amp;lt;Borrowing&amp;gt;&lt;/span&gt;" style="text;html=1;align=left;verticalAlign=middle;resizable=0;points=[];autosize=1;strokeColor=none;fillColor=none;fontSize=13;" parent="MP63xAjJxbPP2gbI5e4D-107" vertex="1">
          <mxGeometry y="292" width="290" height="30" as="geometry" />
        </mxCell>
        <mxCell id="MP63xAjJxbPP2gbI5e4D-119" value="&lt;span style=&quot;font-size: 12px;&quot;&gt;+addFromKeyBoard(): Device&lt;/span&gt;" style="text;html=1;align=left;verticalAlign=middle;resizable=0;points=[];autosize=1;strokeColor=none;fillColor=none;fontSize=13;" parent="MP63xAjJxbPP2gbI5e4D-107" vertex="1">
          <mxGeometry y="322" width="290" height="30" as="geometry" />
        </mxCell>
        <mxCell id="MP63xAjJxbPP2gbI5e4D-120" value="&lt;span style=&quot;font-size: 12px;&quot;&gt;+show(d : Device): void&lt;/span&gt;" style="text;html=1;align=left;verticalAlign=middle;resizable=0;points=[];autosize=1;strokeColor=none;fillColor=none;fontSize=13;" parent="MP63xAjJxbPP2gbI5e4D-107" vertex="1">
          <mxGeometry y="352" width="290" height="30" as="geometry" />
        </mxCell>
        <mxCell id="MP63xAjJxbPP2gbI5e4D-121" value="" style="rhombus;whiteSpace=wrap;html=1;fontSize=15;" parent="1" vertex="1">
          <mxGeometry x="450" y="1360" width="40" height="20" as="geometry" />
        </mxCell>
        <mxCell id="MP63xAjJxbPP2gbI5e4D-122" value="" style="endArrow=none;html=1;rounded=0;fontSize=15;entryX=0;entryY=0.846;entryDx=0;entryDy=0;entryPerimeter=0;" parent="1" target="MP63xAjJxbPP2gbI5e4D-97" edge="1">
          <mxGeometry width="50" height="50" relative="1" as="geometry">
            <mxPoint x="490" y="1370" as="sourcePoint" />
            <mxPoint x="540" y="1240" as="targetPoint" />
          </mxGeometry>
        </mxCell>
        <mxCell id="MP63xAjJxbPP2gbI5e4D-123" value="" style="endArrow=none;html=1;rounded=0;fontSize=15;" parent="1" target="MP63xAjJxbPP2gbI5e4D-120" edge="1">
          <mxGeometry width="50" height="50" relative="1" as="geometry">
            <mxPoint x="820" y="1160" as="sourcePoint" />
            <mxPoint x="820" y="1010" as="targetPoint" />
            <Array as="points">
              <mxPoint x="820" y="1120" />
              <mxPoint x="1375" y="1120" />
            </Array>
          </mxGeometry>
        </mxCell>
        <mxCell id="MP63xAjJxbPP2gbI5e4D-124" value="" style="rhombus;whiteSpace=wrap;html=1;fontSize=15;" parent="1" vertex="1">
          <mxGeometry x="810" y="1160" width="20" height="30" as="geometry" />
        </mxCell>
        <mxCell id="MP63xAjJxbPP2gbI5e4D-125" value="Device" style="swimlane;fontStyle=1;align=center;verticalAlign=top;childLayout=stackLayout;horizontal=1;startSize=26;horizontalStack=0;resizeParent=1;resizeLast=0;collapsible=1;marginBottom=0;rounded=0;shadow=0;strokeWidth=1;fontSize=15;" parent="1" vertex="1">
          <mxGeometry x="1340" y="110" width="290" height="412" as="geometry">
            <mxRectangle x="340" y="380" width="170" height="26" as="alternateBounds" />
          </mxGeometry>
        </mxCell>
        <mxCell id="MP63xAjJxbPP2gbI5e4D-126" value="-DeId: String" style="text;align=left;verticalAlign=top;spacingLeft=4;spacingRight=4;overflow=hidden;rotatable=0;points=[[0,0.5],[1,0.5]];portConstraint=eastwest;" parent="MP63xAjJxbPP2gbI5e4D-125" vertex="1">
          <mxGeometry y="26" width="290" height="26" as="geometry" />
        </mxCell>
        <mxCell id="MP63xAjJxbPP2gbI5e4D-127" value="-type: String" style="text;align=left;verticalAlign=top;spacingLeft=4;spacingRight=4;overflow=hidden;rotatable=0;points=[[0,0.5],[1,0.5]];portConstraint=eastwest;" parent="MP63xAjJxbPP2gbI5e4D-125" vertex="1">
          <mxGeometry y="52" width="290" height="26" as="geometry" />
        </mxCell>
        <mxCell id="MP63xAjJxbPP2gbI5e4D-128" value="-quantity: int" style="text;align=left;verticalAlign=top;spacingLeft=4;spacingRight=4;overflow=hidden;rotatable=0;points=[[0,0.5],[1,0.5]];portConstraint=eastwest;" parent="MP63xAjJxbPP2gbI5e4D-125" vertex="1">
          <mxGeometry y="78" width="290" height="26" as="geometry" />
        </mxCell>
        <mxCell id="MP63xAjJxbPP2gbI5e4D-129" value="" style="line;html=1;strokeWidth=1;align=left;verticalAlign=middle;spacingTop=-1;spacingLeft=3;spacingRight=3;rotatable=0;labelPosition=right;points=[];portConstraint=eastwest;" parent="MP63xAjJxbPP2gbI5e4D-125" vertex="1">
          <mxGeometry y="104" width="290" height="8" as="geometry" />
        </mxCell>
        <mxCell id="MP63xAjJxbPP2gbI5e4D-130" value="+Device()" style="text;html=1;align=left;verticalAlign=middle;resizable=0;points=[];autosize=1;strokeColor=none;fillColor=none;fontSize=13;" parent="MP63xAjJxbPP2gbI5e4D-125" vertex="1">
          <mxGeometry y="112" width="290" height="30" as="geometry" />
        </mxCell>
        <mxCell id="MP63xAjJxbPP2gbI5e4D-131" value="+add(d : Device): void" style="text;html=1;align=left;verticalAlign=middle;resizable=0;points=[];autosize=1;strokeColor=none;fillColor=none;fontSize=13;" parent="MP63xAjJxbPP2gbI5e4D-125" vertex="1">
          <mxGeometry y="142" width="290" height="30" as="geometry" />
        </mxCell>
        <mxCell id="MP63xAjJxbPP2gbI5e4D-132" value="+edit(id : String): void" style="text;html=1;align=left;verticalAlign=middle;resizable=0;points=[];autosize=1;strokeColor=none;fillColor=none;fontSize=13;" parent="MP63xAjJxbPP2gbI5e4D-125" vertex="1">
          <mxGeometry y="172" width="290" height="30" as="geometry" />
        </mxCell>
        <mxCell id="MP63xAjJxbPP2gbI5e4D-133" value="+remove(id : String): void" style="text;html=1;align=left;verticalAlign=middle;resizable=0;points=[];autosize=1;strokeColor=none;fillColor=none;fontSize=13;" parent="MP63xAjJxbPP2gbI5e4D-125" vertex="1">
          <mxGeometry y="202" width="290" height="30" as="geometry" />
        </mxCell>
        <mxCell id="MP63xAjJxbPP2gbI5e4D-134" value="&lt;span style=&quot;font-size: 12px;&quot;&gt;+searchDeByName(key : String): List&amp;lt;Device&amp;gt;&lt;/span&gt;" style="text;html=1;align=left;verticalAlign=middle;resizable=0;points=[];autosize=1;strokeColor=none;fillColor=none;fontSize=13;" parent="MP63xAjJxbPP2gbI5e4D-125" vertex="1">
          <mxGeometry y="232" width="290" height="30" as="geometry" />
        </mxCell>
        <mxCell id="MP63xAjJxbPP2gbI5e4D-135" value="&lt;span style=&quot;font-size: 12px;&quot;&gt;+searchDeByType(type : String): List&amp;lt;Device&amp;gt;&lt;/span&gt;" style="text;html=1;align=left;verticalAlign=middle;resizable=0;points=[];autosize=1;strokeColor=none;fillColor=none;fontSize=13;" parent="MP63xAjJxbPP2gbI5e4D-125" vertex="1">
          <mxGeometry y="262" width="290" height="30" as="geometry" />
        </mxCell>
        <mxCell id="MP63xAjJxbPP2gbI5e4D-136" value="&lt;span style=&quot;font-size: 12px;&quot;&gt;+getById(id: String): Device&lt;/span&gt;" style="text;html=1;align=left;verticalAlign=middle;resizable=0;points=[];autosize=1;strokeColor=none;fillColor=none;fontSize=13;" parent="MP63xAjJxbPP2gbI5e4D-125" vertex="1">
          <mxGeometry y="292" width="290" height="30" as="geometry" />
        </mxCell>
        <mxCell id="MP63xAjJxbPP2gbI5e4D-137" value="&lt;span style=&quot;font-size: 12px;&quot;&gt;+addFromKeyBoard(): Device&lt;/span&gt;" style="text;html=1;align=left;verticalAlign=middle;resizable=0;points=[];autosize=1;strokeColor=none;fillColor=none;fontSize=13;" parent="MP63xAjJxbPP2gbI5e4D-125" vertex="1">
          <mxGeometry y="322" width="290" height="30" as="geometry" />
        </mxCell>
        <mxCell id="MP63xAjJxbPP2gbI5e4D-138" value="&lt;span style=&quot;font-size: 12px;&quot;&gt;+show(s : Swimweaar): void&lt;/span&gt;" style="text;html=1;align=left;verticalAlign=middle;resizable=0;points=[];autosize=1;strokeColor=none;fillColor=none;fontSize=13;" parent="MP63xAjJxbPP2gbI5e4D-125" vertex="1">
          <mxGeometry y="352" width="290" height="30" as="geometry" />
        </mxCell>
        <mxCell id="MP63xAjJxbPP2gbI5e4D-139" value="" style="endArrow=block;endSize=10;endFill=0;shadow=0;strokeWidth=1;rounded=0;edgeStyle=elbowEdgeStyle;elbow=vertical;exitX=0.379;exitY=-0.005;exitDx=0;exitDy=0;exitPerimeter=0;" parent="1" source="MP63xAjJxbPP2gbI5e4D-107" edge="1">
          <mxGeometry width="160" relative="1" as="geometry">
            <mxPoint x="910" y="634" as="sourcePoint" />
            <mxPoint x="1400" y="519.9999999999998" as="targetPoint" />
            <Array as="points">
              <mxPoint x="960" y="620" />
            </Array>
          </mxGeometry>
        </mxCell>
        <mxCell id="MP63xAjJxbPP2gbI5e4D-140" value="Vip" style="swimlane;fontStyle=1;align=center;verticalAlign=top;childLayout=stackLayout;horizontal=1;startSize=26;horizontalStack=0;resizeParent=1;resizeLast=0;collapsible=1;marginBottom=0;rounded=0;shadow=0;strokeWidth=1;fontSize=15;" parent="1" vertex="1">
          <mxGeometry x="760" y="634" width="160" height="280" as="geometry">
            <mxRectangle x="550" y="140" width="160" height="26" as="alternateBounds" />
          </mxGeometry>
        </mxCell>
        <mxCell id="MP63xAjJxbPP2gbI5e4D-141" value="-id" style="text;align=left;verticalAlign=top;spacingLeft=4;spacingRight=4;overflow=hidden;rotatable=0;points=[[0,0.5],[1,0.5]];portConstraint=eastwest;" parent="MP63xAjJxbPP2gbI5e4D-140" vertex="1">
          <mxGeometry y="26" width="160" height="26" as="geometry" />
        </mxCell>
        <mxCell id="MP63xAjJxbPP2gbI5e4D-142" value="-name" style="text;align=left;verticalAlign=top;spacingLeft=4;spacingRight=4;overflow=hidden;rotatable=0;points=[[0,0.5],[1,0.5]];portConstraint=eastwest;rounded=0;shadow=0;html=0;" parent="MP63xAjJxbPP2gbI5e4D-140" vertex="1">
          <mxGeometry y="52" width="160" height="26" as="geometry" />
        </mxCell>
        <mxCell id="MP63xAjJxbPP2gbI5e4D-143" value="-phoneNumber" style="text;align=left;verticalAlign=top;spacingLeft=4;spacingRight=4;overflow=hidden;rotatable=0;points=[[0,0.5],[1,0.5]];portConstraint=eastwest;rounded=0;shadow=0;html=0;" parent="MP63xAjJxbPP2gbI5e4D-140" vertex="1">
          <mxGeometry y="78" width="160" height="26" as="geometry" />
        </mxCell>
        <mxCell id="MP63xAjJxbPP2gbI5e4D-144" value="-address" style="text;align=left;verticalAlign=top;spacingLeft=4;spacingRight=4;overflow=hidden;rotatable=0;points=[[0,0.5],[1,0.5]];portConstraint=eastwest;rounded=0;shadow=0;html=0;" parent="MP63xAjJxbPP2gbI5e4D-140" vertex="1">
          <mxGeometry y="104" width="160" height="26" as="geometry" />
        </mxCell>
        <mxCell id="MP63xAjJxbPP2gbI5e4D-145" value="-point" style="text;align=left;verticalAlign=top;spacingLeft=4;spacingRight=4;overflow=hidden;rotatable=0;points=[[0,0.5],[1,0.5]];portConstraint=eastwest;rounded=0;shadow=0;html=0;" parent="MP63xAjJxbPP2gbI5e4D-140" vertex="1">
          <mxGeometry y="130" width="160" height="26" as="geometry" />
        </mxCell>
        <mxCell id="MP63xAjJxbPP2gbI5e4D-146" value="-customerId" style="text;align=left;verticalAlign=top;spacingLeft=4;spacingRight=4;overflow=hidden;rotatable=0;points=[[0,0.5],[1,0.5]];portConstraint=eastwest;rounded=0;shadow=0;html=0;" parent="MP63xAjJxbPP2gbI5e4D-140" vertex="1">
          <mxGeometry y="156" width="160" height="26" as="geometry" />
        </mxCell>
        <mxCell id="MP63xAjJxbPP2gbI5e4D-147" value="-presentList" style="text;align=left;verticalAlign=top;spacingLeft=4;spacingRight=4;overflow=hidden;rotatable=0;points=[[0,0.5],[1,0.5]];portConstraint=eastwest;rounded=0;shadow=0;html=0;" parent="MP63xAjJxbPP2gbI5e4D-140" vertex="1">
          <mxGeometry y="182" width="160" height="26" as="geometry" />
        </mxCell>
        <mxCell id="MP63xAjJxbPP2gbI5e4D-148" value="-expiryDate" style="text;align=left;verticalAlign=top;spacingLeft=4;spacingRight=4;overflow=hidden;rotatable=0;points=[[0,0.5],[1,0.5]];portConstraint=eastwest;rounded=0;shadow=0;html=0;" parent="MP63xAjJxbPP2gbI5e4D-140" vertex="1">
          <mxGeometry y="208" width="160" height="26" as="geometry" />
        </mxCell>
        <mxCell id="MP63xAjJxbPP2gbI5e4D-149" value="" style="line;html=1;strokeWidth=1;align=left;verticalAlign=middle;spacingTop=-1;spacingLeft=3;spacingRight=3;rotatable=0;labelPosition=right;points=[];portConstraint=eastwest;" parent="MP63xAjJxbPP2gbI5e4D-140" vertex="1">
          <mxGeometry y="234" width="160" height="8" as="geometry" />
        </mxCell>
        <mxCell id="MP63xAjJxbPP2gbI5e4D-150" value="+getPresert()" style="text;align=left;verticalAlign=top;spacingLeft=4;spacingRight=4;overflow=hidden;rotatable=0;points=[[0,0.5],[1,0.5]];portConstraint=eastwest;" parent="MP63xAjJxbPP2gbI5e4D-140" vertex="1">
          <mxGeometry y="242" width="160" height="26" as="geometry" />
        </mxCell>
        <mxCell id="MP63xAjJxbPP2gbI5e4D-152" value="Present" style="swimlane;fontStyle=1;align=center;verticalAlign=top;childLayout=stackLayout;horizontal=1;startSize=26;horizontalStack=0;resizeParent=1;resizeLast=0;collapsible=1;marginBottom=0;rounded=0;shadow=0;strokeWidth=1;fontSize=15;" parent="1" vertex="1">
          <mxGeometry x="1010" y="687" width="160" height="163" as="geometry">
            <mxRectangle x="550" y="140" width="160" height="26" as="alternateBounds" />
          </mxGeometry>
        </mxCell>
        <mxCell id="MP63xAjJxbPP2gbI5e4D-153" value="-id" style="text;align=left;verticalAlign=top;spacingLeft=4;spacingRight=4;overflow=hidden;rotatable=0;points=[[0,0.5],[1,0.5]];portConstraint=eastwest;" parent="MP63xAjJxbPP2gbI5e4D-152" vertex="1">
          <mxGeometry y="26" width="160" height="26" as="geometry" />
        </mxCell>
        <mxCell id="MP63xAjJxbPP2gbI5e4D-154" value="-name" style="text;align=left;verticalAlign=top;spacingLeft=4;spacingRight=4;overflow=hidden;rotatable=0;points=[[0,0.5],[1,0.5]];portConstraint=eastwest;rounded=0;shadow=0;html=0;" parent="MP63xAjJxbPP2gbI5e4D-152" vertex="1">
          <mxGeometry y="52" width="160" height="26" as="geometry" />
        </mxCell>
        <mxCell id="MP63xAjJxbPP2gbI5e4D-155" value="-image" style="text;align=left;verticalAlign=top;spacingLeft=4;spacingRight=4;overflow=hidden;rotatable=0;points=[[0,0.5],[1,0.5]];portConstraint=eastwest;rounded=0;shadow=0;html=0;" parent="MP63xAjJxbPP2gbI5e4D-152" vertex="1">
          <mxGeometry y="78" width="160" height="26" as="geometry" />
        </mxCell>
        <mxCell id="MP63xAjJxbPP2gbI5e4D-156" value="-point" style="text;align=left;verticalAlign=top;spacingLeft=4;spacingRight=4;overflow=hidden;rotatable=0;points=[[0,0.5],[1,0.5]];portConstraint=eastwest;rounded=0;shadow=0;html=0;" parent="MP63xAjJxbPP2gbI5e4D-152" vertex="1">
          <mxGeometry y="104" width="160" height="26" as="geometry" />
        </mxCell>
        <mxCell id="MP63xAjJxbPP2gbI5e4D-157" value="" style="line;html=1;strokeWidth=1;align=left;verticalAlign=middle;spacingTop=-1;spacingLeft=3;spacingRight=3;rotatable=0;labelPosition=right;points=[];portConstraint=eastwest;" parent="MP63xAjJxbPP2gbI5e4D-152" vertex="1">
          <mxGeometry y="130" width="160" height="8" as="geometry" />
        </mxCell>
        <mxCell id="MP63xAjJxbPP2gbI5e4D-158" value="" style="endArrow=none;html=1;rounded=0;entryX=0;entryY=0.5;entryDx=0;entryDy=0;" parent="1" source="MP63xAjJxbPP2gbI5e4D-145" target="MP63xAjJxbPP2gbI5e4D-155" edge="1">
          <mxGeometry width="50" height="50" relative="1" as="geometry">
            <mxPoint x="510" y="920" as="sourcePoint" />
            <mxPoint x="560" y="870" as="targetPoint" />
          </mxGeometry>
        </mxCell>
        <mxCell id="MP63xAjJxbPP2gbI5e4D-159" value="order" style="swimlane;fontStyle=1;align=center;verticalAlign=top;childLayout=stackLayout;horizontal=1;startSize=26;horizontalStack=0;resizeParent=1;resizeLast=0;collapsible=1;marginBottom=0;rounded=0;shadow=0;strokeWidth=1;fontSize=15;" parent="1" vertex="1">
          <mxGeometry x="540" y="220" width="160" height="216" as="geometry">
            <mxRectangle x="550" y="140" width="160" height="26" as="alternateBounds" />
          </mxGeometry>
        </mxCell>
        <mxCell id="MP63xAjJxbPP2gbI5e4D-160" value="-itemId: String" style="text;align=left;verticalAlign=top;spacingLeft=4;spacingRight=4;overflow=hidden;rotatable=0;points=[[0,0.5],[1,0.5]];portConstraint=eastwest;" parent="MP63xAjJxbPP2gbI5e4D-159" vertex="1">
          <mxGeometry y="26" width="160" height="26" as="geometry" />
        </mxCell>
        <mxCell id="MP63xAjJxbPP2gbI5e4D-161" value="-cusID: String" style="text;align=left;verticalAlign=top;spacingLeft=4;spacingRight=4;overflow=hidden;rotatable=0;points=[[0,0.5],[1,0.5]];portConstraint=eastwest;rounded=0;shadow=0;html=0;" parent="MP63xAjJxbPP2gbI5e4D-159" vertex="1">
          <mxGeometry y="52" width="160" height="26" as="geometry" />
        </mxCell>
        <mxCell id="MP63xAjJxbPP2gbI5e4D-162" value="-orderDate: date" style="text;align=left;verticalAlign=top;spacingLeft=4;spacingRight=4;overflow=hidden;rotatable=0;points=[[0,0.5],[1,0.5]];portConstraint=eastwest;rounded=0;shadow=0;html=0;" parent="MP63xAjJxbPP2gbI5e4D-159" vertex="1">
          <mxGeometry y="78" width="160" height="26" as="geometry" />
        </mxCell>
        <mxCell id="MP63xAjJxbPP2gbI5e4D-163" value="-price: long" style="text;align=left;verticalAlign=top;spacingLeft=4;spacingRight=4;overflow=hidden;rotatable=0;points=[[0,0.5],[1,0.5]];portConstraint=eastwest;rounded=0;shadow=0;html=0;" parent="MP63xAjJxbPP2gbI5e4D-159" vertex="1">
          <mxGeometry y="104" width="160" height="26" as="geometry" />
        </mxCell>
        <mxCell id="MP63xAjJxbPP2gbI5e4D-164" value="" style="line;html=1;strokeWidth=1;align=left;verticalAlign=middle;spacingTop=-1;spacingLeft=3;spacingRight=3;rotatable=0;labelPosition=right;points=[];portConstraint=eastwest;" parent="MP63xAjJxbPP2gbI5e4D-159" vertex="1">
          <mxGeometry y="130" width="160" height="8" as="geometry" />
        </mxCell>
        <mxCell id="MP63xAjJxbPP2gbI5e4D-165" value="+getOrder()" style="text;align=left;verticalAlign=top;spacingLeft=4;spacingRight=4;overflow=hidden;rotatable=0;points=[[0,0.5],[1,0.5]];portConstraint=eastwest;" parent="MP63xAjJxbPP2gbI5e4D-159" vertex="1">
          <mxGeometry y="138" width="160" height="26" as="geometry" />
        </mxCell>
        <mxCell id="MP63xAjJxbPP2gbI5e4D-166" value="+getCusID()" style="text;align=left;verticalAlign=top;spacingLeft=4;spacingRight=4;overflow=hidden;rotatable=0;points=[[0,0.5],[1,0.5]];portConstraint=eastwest;" parent="MP63xAjJxbPP2gbI5e4D-159" vertex="1">
          <mxGeometry y="164" width="160" height="26" as="geometry" />
        </mxCell>
        <mxCell id="MP63xAjJxbPP2gbI5e4D-167" value="+getOrderDate()" style="text;align=left;verticalAlign=top;spacingLeft=4;spacingRight=4;overflow=hidden;rotatable=0;points=[[0,0.5],[1,0.5]];portConstraint=eastwest;" parent="MP63xAjJxbPP2gbI5e4D-159" vertex="1">
          <mxGeometry y="190" width="160" height="26" as="geometry" />
        </mxCell>
        <mxCell id="MP63xAjJxbPP2gbI5e4D-168" value="" style="endArrow=none;html=1;rounded=0;entryX=0.375;entryY=1.154;entryDx=0;entryDy=0;entryPerimeter=0;exitX=0.921;exitY=-0.006;exitDx=0;exitDy=0;exitPerimeter=0;" parent="1" source="MP63xAjJxbPP2gbI5e4D-36" target="MP63xAjJxbPP2gbI5e4D-167" edge="1">
          <mxGeometry width="50" height="50" relative="1" as="geometry">
            <mxPoint x="380" y="500" as="sourcePoint" />
            <mxPoint x="430" y="450" as="targetPoint" />
          </mxGeometry>
        </mxCell>
        <mxCell id="MP63xAjJxbPP2gbI5e4D-169" value="orderDetail" style="swimlane;fontStyle=1;align=center;verticalAlign=top;childLayout=stackLayout;horizontal=1;startSize=26;horizontalStack=0;resizeParent=1;resizeLast=0;collapsible=1;marginBottom=0;rounded=0;shadow=0;strokeWidth=1;fontSize=15;" parent="1" vertex="1">
          <mxGeometry x="770" y="221" width="160" height="216" as="geometry">
            <mxRectangle x="550" y="140" width="160" height="26" as="alternateBounds" />
          </mxGeometry>
        </mxCell>
        <mxCell id="MP63xAjJxbPP2gbI5e4D-170" value="-itemId: String" style="text;align=left;verticalAlign=top;spacingLeft=4;spacingRight=4;overflow=hidden;rotatable=0;points=[[0,0.5],[1,0.5]];portConstraint=eastwest;" parent="MP63xAjJxbPP2gbI5e4D-169" vertex="1">
          <mxGeometry y="26" width="160" height="26" as="geometry" />
        </mxCell>
        <mxCell id="MP63xAjJxbPP2gbI5e4D-171" value="-quantity: int" style="text;align=left;verticalAlign=top;spacingLeft=4;spacingRight=4;overflow=hidden;rotatable=0;points=[[0,0.5],[1,0.5]];portConstraint=eastwest;rounded=0;shadow=0;html=0;" parent="MP63xAjJxbPP2gbI5e4D-169" vertex="1">
          <mxGeometry y="52" width="160" height="26" as="geometry" />
        </mxCell>
        <mxCell id="MP63xAjJxbPP2gbI5e4D-172" value="-type: String" style="text;align=left;verticalAlign=top;spacingLeft=4;spacingRight=4;overflow=hidden;rotatable=0;points=[[0,0.5],[1,0.5]];portConstraint=eastwest;rounded=0;shadow=0;html=0;" parent="MP63xAjJxbPP2gbI5e4D-169" vertex="1">
          <mxGeometry y="78" width="160" height="26" as="geometry" />
        </mxCell>
        <mxCell id="MP63xAjJxbPP2gbI5e4D-173" value="-price: long" style="text;align=left;verticalAlign=top;spacingLeft=4;spacingRight=4;overflow=hidden;rotatable=0;points=[[0,0.5],[1,0.5]];portConstraint=eastwest;rounded=0;shadow=0;html=0;" parent="MP63xAjJxbPP2gbI5e4D-169" vertex="1">
          <mxGeometry y="104" width="160" height="26" as="geometry" />
        </mxCell>
        <mxCell id="MP63xAjJxbPP2gbI5e4D-174" value="" style="line;html=1;strokeWidth=1;align=left;verticalAlign=middle;spacingTop=-1;spacingLeft=3;spacingRight=3;rotatable=0;labelPosition=right;points=[];portConstraint=eastwest;" parent="MP63xAjJxbPP2gbI5e4D-169" vertex="1">
          <mxGeometry y="130" width="160" height="8" as="geometry" />
        </mxCell>
        <mxCell id="MP63xAjJxbPP2gbI5e4D-175" value="+getItemID()" style="text;align=left;verticalAlign=top;spacingLeft=4;spacingRight=4;overflow=hidden;rotatable=0;points=[[0,0.5],[1,0.5]];portConstraint=eastwest;" parent="MP63xAjJxbPP2gbI5e4D-169" vertex="1">
          <mxGeometry y="138" width="160" height="26" as="geometry" />
        </mxCell>
        <mxCell id="MP63xAjJxbPP2gbI5e4D-176" value="+getQuantity()" style="text;align=left;verticalAlign=top;spacingLeft=4;spacingRight=4;overflow=hidden;rotatable=0;points=[[0,0.5],[1,0.5]];portConstraint=eastwest;" parent="MP63xAjJxbPP2gbI5e4D-169" vertex="1">
          <mxGeometry y="164" width="160" height="26" as="geometry" />
        </mxCell>
        <mxCell id="MP63xAjJxbPP2gbI5e4D-177" value="+getType()" style="text;align=left;verticalAlign=top;spacingLeft=4;spacingRight=4;overflow=hidden;rotatable=0;points=[[0,0.5],[1,0.5]];portConstraint=eastwest;" parent="MP63xAjJxbPP2gbI5e4D-169" vertex="1">
          <mxGeometry y="190" width="160" height="26" as="geometry" />
        </mxCell>
        <mxCell id="MP63xAjJxbPP2gbI5e4D-178" value="Items" style="swimlane;fontStyle=1;align=center;verticalAlign=top;childLayout=stackLayout;horizontal=1;startSize=26;horizontalStack=0;resizeParent=1;resizeLast=0;collapsible=1;marginBottom=0;rounded=0;shadow=0;strokeWidth=1;fontSize=15;" parent="1" vertex="1">
          <mxGeometry x="1060" y="180" width="160" height="294" as="geometry">
            <mxRectangle x="550" y="140" width="160" height="26" as="alternateBounds" />
          </mxGeometry>
        </mxCell>
        <mxCell id="MP63xAjJxbPP2gbI5e4D-179" value="-itemId: String" style="text;align=left;verticalAlign=top;spacingLeft=4;spacingRight=4;overflow=hidden;rotatable=0;points=[[0,0.5],[1,0.5]];portConstraint=eastwest;" parent="MP63xAjJxbPP2gbI5e4D-178" vertex="1">
          <mxGeometry y="26" width="160" height="26" as="geometry" />
        </mxCell>
        <mxCell id="MP63xAjJxbPP2gbI5e4D-180" value="-quantity: int" style="text;align=left;verticalAlign=top;spacingLeft=4;spacingRight=4;overflow=hidden;rotatable=0;points=[[0,0.5],[1,0.5]];portConstraint=eastwest;rounded=0;shadow=0;html=0;" parent="MP63xAjJxbPP2gbI5e4D-178" vertex="1">
          <mxGeometry y="52" width="160" height="26" as="geometry" />
        </mxCell>
        <mxCell id="MP63xAjJxbPP2gbI5e4D-181" value="-type: String" style="text;align=left;verticalAlign=top;spacingLeft=4;spacingRight=4;overflow=hidden;rotatable=0;points=[[0,0.5],[1,0.5]];portConstraint=eastwest;rounded=0;shadow=0;html=0;" parent="MP63xAjJxbPP2gbI5e4D-178" vertex="1">
          <mxGeometry y="78" width="160" height="26" as="geometry" />
        </mxCell>
        <mxCell id="MP63xAjJxbPP2gbI5e4D-182" value="-detail: String" style="text;align=left;verticalAlign=top;spacingLeft=4;spacingRight=4;overflow=hidden;rotatable=0;points=[[0,0.5],[1,0.5]];portConstraint=eastwest;rounded=0;shadow=0;html=0;" parent="MP63xAjJxbPP2gbI5e4D-178" vertex="1">
          <mxGeometry y="104" width="160" height="26" as="geometry" />
        </mxCell>
        <mxCell id="MP63xAjJxbPP2gbI5e4D-183" value="-image: nvarchar" style="text;align=left;verticalAlign=top;spacingLeft=4;spacingRight=4;overflow=hidden;rotatable=0;points=[[0,0.5],[1,0.5]];portConstraint=eastwest;rounded=0;shadow=0;html=0;" parent="MP63xAjJxbPP2gbI5e4D-178" vertex="1">
          <mxGeometry y="130" width="160" height="26" as="geometry" />
        </mxCell>
        <mxCell id="MP63xAjJxbPP2gbI5e4D-184" value="-price: long" style="text;align=left;verticalAlign=top;spacingLeft=4;spacingRight=4;overflow=hidden;rotatable=0;points=[[0,0.5],[1,0.5]];portConstraint=eastwest;rounded=0;shadow=0;html=0;" parent="MP63xAjJxbPP2gbI5e4D-178" vertex="1">
          <mxGeometry y="156" width="160" height="26" as="geometry" />
        </mxCell>
        <mxCell id="MP63xAjJxbPP2gbI5e4D-185" value="-quantity: int" style="text;align=left;verticalAlign=top;spacingLeft=4;spacingRight=4;overflow=hidden;rotatable=0;points=[[0,0.5],[1,0.5]];portConstraint=eastwest;rounded=0;shadow=0;html=0;" parent="MP63xAjJxbPP2gbI5e4D-178" vertex="1">
          <mxGeometry y="182" width="160" height="26" as="geometry" />
        </mxCell>
        <mxCell id="MP63xAjJxbPP2gbI5e4D-186" value="" style="line;html=1;strokeWidth=1;align=left;verticalAlign=middle;spacingTop=-1;spacingLeft=3;spacingRight=3;rotatable=0;labelPosition=right;points=[];portConstraint=eastwest;" parent="MP63xAjJxbPP2gbI5e4D-178" vertex="1">
          <mxGeometry y="208" width="160" height="8" as="geometry" />
        </mxCell>
        <mxCell id="MP63xAjJxbPP2gbI5e4D-187" value="+getItemID()" style="text;align=left;verticalAlign=top;spacingLeft=4;spacingRight=4;overflow=hidden;rotatable=0;points=[[0,0.5],[1,0.5]];portConstraint=eastwest;" parent="MP63xAjJxbPP2gbI5e4D-178" vertex="1">
          <mxGeometry y="216" width="160" height="26" as="geometry" />
        </mxCell>
        <mxCell id="MP63xAjJxbPP2gbI5e4D-188" value="+getQuantity()" style="text;align=left;verticalAlign=top;spacingLeft=4;spacingRight=4;overflow=hidden;rotatable=0;points=[[0,0.5],[1,0.5]];portConstraint=eastwest;" parent="MP63xAjJxbPP2gbI5e4D-178" vertex="1">
          <mxGeometry y="242" width="160" height="26" as="geometry" />
        </mxCell>
        <mxCell id="MP63xAjJxbPP2gbI5e4D-189" value="+getType()" style="text;align=left;verticalAlign=top;spacingLeft=4;spacingRight=4;overflow=hidden;rotatable=0;points=[[0,0.5],[1,0.5]];portConstraint=eastwest;" parent="MP63xAjJxbPP2gbI5e4D-178" vertex="1">
          <mxGeometry y="268" width="160" height="26" as="geometry" />
        </mxCell>
        <mxCell id="MP63xAjJxbPP2gbI5e4D-190" value="" style="endArrow=block;endSize=10;endFill=0;shadow=0;strokeWidth=1;rounded=0;edgeStyle=elbowEdgeStyle;elbow=vertical;exitX=1;exitY=1.115;exitDx=0;exitDy=0;exitPerimeter=0;" parent="1" source="MP63xAjJxbPP2gbI5e4D-182" edge="1">
          <mxGeometry width="160" relative="1" as="geometry">
            <mxPoint x="1259.9999999999998" y="282.06999999999994" as="sourcePoint" />
            <mxPoint x="1340" y="270" as="targetPoint" />
            <Array as="points">
              <mxPoint x="880.09" y="270" />
            </Array>
          </mxGeometry>
        </mxCell>
        <mxCell id="MP63xAjJxbPP2gbI5e4D-191" value="" style="endArrow=none;html=1;rounded=0;exitX=0.994;exitY=0.962;exitDx=0;exitDy=0;exitPerimeter=0;entryX=0;entryY=0.5;entryDx=0;entryDy=0;" parent="1" source="MP63xAjJxbPP2gbI5e4D-173" target="MP63xAjJxbPP2gbI5e4D-184" edge="1">
          <mxGeometry width="50" height="50" relative="1" as="geometry">
            <mxPoint x="1060" y="390" as="sourcePoint" />
            <mxPoint x="1110" y="340" as="targetPoint" />
          </mxGeometry>
        </mxCell>
        <mxCell id="MP63xAjJxbPP2gbI5e4D-192" value="" style="endArrow=none;html=1;rounded=0;entryX=0.017;entryY=1.092;entryDx=0;entryDy=0;entryPerimeter=0;exitX=1;exitY=1.115;exitDx=0;exitDy=0;exitPerimeter=0;" parent="1" source="MP63xAjJxbPP2gbI5e4D-163" target="MP63xAjJxbPP2gbI5e4D-173" edge="1">
          <mxGeometry width="50" height="50" relative="1" as="geometry">
            <mxPoint x="1060" y="390" as="sourcePoint" />
            <mxPoint x="1110" y="340" as="targetPoint" />
          </mxGeometry>
        </mxCell>
        <mxCell id="MP63xAjJxbPP2gbI5e4D-193" value="" style="endArrow=none;html=1;rounded=0;" parent="1" target="MP63xAjJxbPP2gbI5e4D-159" edge="1">
          <mxGeometry width="50" height="50" relative="1" as="geometry">
            <mxPoint x="-420" y="1130" as="sourcePoint" />
            <mxPoint x="330" y="460" as="targetPoint" />
            <Array as="points">
              <mxPoint x="-410" y="20" />
              <mxPoint x="620" y="20" />
            </Array>
          </mxGeometry>
        </mxCell>
        <mxCell id="MP63xAjJxbPP2gbI5e4D-194" value="" style="rhombus;whiteSpace=wrap;html=1;fontSize=15;fillColor=#1A1A1A;" parent="1" vertex="1">
          <mxGeometry x="-430" y="1120" width="20" height="40" as="geometry" />
        </mxCell>
        <mxCell id="MP63xAjJxbPP2gbI5e4D-195" value="SignupForMonTicket" style="swimlane;fontStyle=1;align=center;verticalAlign=top;childLayout=stackLayout;horizontal=1;startSize=26;horizontalStack=0;resizeParent=1;resizeLast=0;collapsible=1;marginBottom=0;rounded=0;shadow=0;strokeWidth=1;fontSize=15;" parent="1" vertex="1">
          <mxGeometry x="940" y="1728" width="220" height="190" as="geometry">
            <mxRectangle x="550" y="140" width="160" height="26" as="alternateBounds" />
          </mxGeometry>
        </mxCell>
        <mxCell id="MP63xAjJxbPP2gbI5e4D-196" value="-cardID: String" style="text;align=left;verticalAlign=top;spacingLeft=4;spacingRight=4;overflow=hidden;rotatable=0;points=[[0,0.5],[1,0.5]];portConstraint=eastwest;" parent="MP63xAjJxbPP2gbI5e4D-195" vertex="1">
          <mxGeometry y="26" width="220" height="26" as="geometry" />
        </mxCell>
        <mxCell id="MP63xAjJxbPP2gbI5e4D-197" value="-CusID: String" style="text;align=left;verticalAlign=top;spacingLeft=4;spacingRight=4;overflow=hidden;rotatable=0;points=[[0,0.5],[1,0.5]];portConstraint=eastwest;" parent="MP63xAjJxbPP2gbI5e4D-195" vertex="1">
          <mxGeometry y="52" width="220" height="26" as="geometry" />
        </mxCell>
        <mxCell id="MP63xAjJxbPP2gbI5e4D-198" value="-month: int" style="text;align=left;verticalAlign=top;spacingLeft=4;spacingRight=4;overflow=hidden;rotatable=0;points=[[0,0.5],[1,0.5]];portConstraint=eastwest;rounded=0;shadow=0;html=0;" parent="MP63xAjJxbPP2gbI5e4D-195" vertex="1">
          <mxGeometry y="78" width="220" height="26" as="geometry" />
        </mxCell>
        <mxCell id="MP63xAjJxbPP2gbI5e4D-199" value="" style="line;html=1;strokeWidth=1;align=left;verticalAlign=middle;spacingTop=-1;spacingLeft=3;spacingRight=3;rotatable=0;labelPosition=right;points=[];portConstraint=eastwest;" parent="MP63xAjJxbPP2gbI5e4D-195" vertex="1">
          <mxGeometry y="104" width="220" height="8" as="geometry" />
        </mxCell>
        <mxCell id="MP63xAjJxbPP2gbI5e4D-200" value="-MonthlyTicket()" style="text;align=left;verticalAlign=top;spacingLeft=4;spacingRight=4;overflow=hidden;rotatable=0;points=[[0,0.5],[1,0.5]];portConstraint=eastwest;" parent="MP63xAjJxbPP2gbI5e4D-195" vertex="1">
          <mxGeometry y="112" width="220" height="26" as="geometry" />
        </mxCell>
        <mxCell id="MP63xAjJxbPP2gbI5e4D-201" value="-getID()" style="text;align=left;verticalAlign=top;spacingLeft=4;spacingRight=4;overflow=hidden;rotatable=0;points=[[0,0.5],[1,0.5]];portConstraint=eastwest;" parent="MP63xAjJxbPP2gbI5e4D-195" vertex="1">
          <mxGeometry y="138" width="220" height="26" as="geometry" />
        </mxCell>
        <mxCell id="MP63xAjJxbPP2gbI5e4D-202" value="-getMonth()" style="text;align=left;verticalAlign=top;spacingLeft=4;spacingRight=4;overflow=hidden;rotatable=0;points=[[0,0.5],[1,0.5]];portConstraint=eastwest;" parent="MP63xAjJxbPP2gbI5e4D-195" vertex="1">
          <mxGeometry y="164" width="220" height="26" as="geometry" />
        </mxCell>
        <mxCell id="MP63xAjJxbPP2gbI5e4D-203" value="ServicePack" style="swimlane;fontStyle=1;align=center;verticalAlign=top;childLayout=stackLayout;horizontal=1;startSize=26;horizontalStack=0;resizeParent=1;resizeLast=0;collapsible=1;marginBottom=0;rounded=0;shadow=0;strokeWidth=1;fontSize=15;" parent="1" vertex="1">
          <mxGeometry x="460" y="1728" width="220" height="216" as="geometry">
            <mxRectangle x="550" y="140" width="160" height="26" as="alternateBounds" />
          </mxGeometry>
        </mxCell>
        <mxCell id="MP63xAjJxbPP2gbI5e4D-204" value="-cardID: String" style="text;align=left;verticalAlign=top;spacingLeft=4;spacingRight=4;overflow=hidden;rotatable=0;points=[[0,0.5],[1,0.5]];portConstraint=eastwest;" parent="MP63xAjJxbPP2gbI5e4D-203" vertex="1">
          <mxGeometry y="26" width="220" height="26" as="geometry" />
        </mxCell>
        <mxCell id="MP63xAjJxbPP2gbI5e4D-205" value="-cusID: String" style="text;align=left;verticalAlign=top;spacingLeft=4;spacingRight=4;overflow=hidden;rotatable=0;points=[[0,0.5],[1,0.5]];portConstraint=eastwest;rounded=0;shadow=0;html=0;" parent="MP63xAjJxbPP2gbI5e4D-203" vertex="1">
          <mxGeometry y="52" width="220" height="26" as="geometry" />
        </mxCell>
        <mxCell id="MP63xAjJxbPP2gbI5e4D-206" value="-price: long" style="text;align=left;verticalAlign=top;spacingLeft=4;spacingRight=4;overflow=hidden;rotatable=0;points=[[0,0.5],[1,0.5]];portConstraint=eastwest;rounded=0;shadow=0;html=0;" parent="MP63xAjJxbPP2gbI5e4D-203" vertex="1">
          <mxGeometry y="78" width="220" height="26" as="geometry" />
        </mxCell>
        <mxCell id="MP63xAjJxbPP2gbI5e4D-207" value="" style="line;html=1;strokeWidth=1;align=left;verticalAlign=middle;spacingTop=-1;spacingLeft=3;spacingRight=3;rotatable=0;labelPosition=right;points=[];portConstraint=eastwest;" parent="MP63xAjJxbPP2gbI5e4D-203" vertex="1">
          <mxGeometry y="104" width="220" height="8" as="geometry" />
        </mxCell>
        <mxCell id="MP63xAjJxbPP2gbI5e4D-208" value="-getPrice()" style="text;align=left;verticalAlign=top;spacingLeft=4;spacingRight=4;overflow=hidden;rotatable=0;points=[[0,0.5],[1,0.5]];portConstraint=eastwest;" parent="MP63xAjJxbPP2gbI5e4D-203" vertex="1">
          <mxGeometry y="112" width="220" height="26" as="geometry" />
        </mxCell>
        <mxCell id="MP63xAjJxbPP2gbI5e4D-209" value="-getCardID()" style="text;align=left;verticalAlign=top;spacingLeft=4;spacingRight=4;overflow=hidden;rotatable=0;points=[[0,0.5],[1,0.5]];portConstraint=eastwest;" parent="MP63xAjJxbPP2gbI5e4D-203" vertex="1">
          <mxGeometry y="138" width="220" height="26" as="geometry" />
        </mxCell>
        <mxCell id="MP63xAjJxbPP2gbI5e4D-210" value="-getCusID()" style="text;align=left;verticalAlign=top;spacingLeft=4;spacingRight=4;overflow=hidden;rotatable=0;points=[[0,0.5],[1,0.5]];portConstraint=eastwest;" parent="MP63xAjJxbPP2gbI5e4D-203" vertex="1">
          <mxGeometry y="164" width="220" height="26" as="geometry" />
        </mxCell>
        <mxCell id="MP63xAjJxbPP2gbI5e4D-211" value="" style="endArrow=none;html=1;rounded=0;entryX=0;entryY=0;entryDx=0;entryDy=0;entryPerimeter=0;" parent="1" target="MP63xAjJxbPP2gbI5e4D-208" edge="1">
          <mxGeometry width="50" height="50" relative="1" as="geometry">
            <mxPoint x="-240" y="1560" as="sourcePoint" />
            <mxPoint x="560" y="1510" as="targetPoint" />
            <Array as="points">
              <mxPoint x="-240" y="1840" />
            </Array>
          </mxGeometry>
        </mxCell>
        <mxCell id="MP63xAjJxbPP2gbI5e4D-212" value="" style="rhombus;whiteSpace=wrap;html=1;fontSize=15;fillColor=#1A1A1A;" parent="1" vertex="1">
          <mxGeometry x="-250" y="1540" width="20" height="40" as="geometry" />
        </mxCell>
        <mxCell id="MP63xAjJxbPP2gbI5e4D-213" value="" style="endArrow=none;html=1;rounded=0;entryX=0.654;entryY=1.067;entryDx=0;entryDy=0;entryPerimeter=0;exitX=0.317;exitY=-0.029;exitDx=0;exitDy=0;exitPerimeter=0;" parent="1" source="MP63xAjJxbPP2gbI5e4D-203" target="MP63xAjJxbPP2gbI5e4D-51" edge="1">
          <mxGeometry width="50" height="50" relative="1" as="geometry">
            <mxPoint x="530" y="1450" as="sourcePoint" />
            <mxPoint x="580" y="1400" as="targetPoint" />
          </mxGeometry>
        </mxCell>
        <mxCell id="MP63xAjJxbPP2gbI5e4D-214" value="" style="endArrow=none;html=1;rounded=0;entryX=-0.017;entryY=0.077;entryDx=0;entryDy=0;entryPerimeter=0;exitX=0.972;exitY=0.077;exitDx=0;exitDy=0;exitPerimeter=0;" parent="1" source="MP63xAjJxbPP2gbI5e4D-208" target="MP63xAjJxbPP2gbI5e4D-200" edge="1">
          <mxGeometry width="50" height="50" relative="1" as="geometry">
            <mxPoint x="510" y="1590" as="sourcePoint" />
            <mxPoint x="560" y="1540" as="targetPoint" />
          </mxGeometry>
        </mxCell>
        <mxCell id="MP63xAjJxbPP2gbI5e4D-215" value="&lt;font style=&quot;font-size: 16px;&quot;&gt;1&lt;/font&gt;" style="text;html=1;strokeColor=none;fillColor=none;align=center;verticalAlign=middle;whiteSpace=wrap;rounded=0;strokeWidth=3;" parent="1" vertex="1">
          <mxGeometry x="580" y="570" width="60" height="30" as="geometry" />
        </mxCell>
        <mxCell id="MP63xAjJxbPP2gbI5e4D-216" value="1" style="text;html=1;strokeColor=none;fillColor=none;align=center;verticalAlign=middle;whiteSpace=wrap;rounded=0;fontSize=16;" parent="1" vertex="1">
          <mxGeometry x="580" y="444" width="60" height="30" as="geometry" />
        </mxCell>
        <mxCell id="MP63xAjJxbPP2gbI5e4D-217" value="1" style="text;html=1;strokeColor=none;fillColor=none;align=center;verticalAlign=middle;whiteSpace=wrap;rounded=0;fontSize=16;" parent="1" vertex="1">
          <mxGeometry x="680" y="320" width="60" height="30" as="geometry" />
        </mxCell>
        <mxCell id="MP63xAjJxbPP2gbI5e4D-218" value="1" style="text;html=1;strokeColor=none;fillColor=none;align=center;verticalAlign=middle;whiteSpace=wrap;rounded=0;fontSize=16;" parent="1" vertex="1">
          <mxGeometry x="730" y="320" width="60" height="30" as="geometry" />
        </mxCell>
        <mxCell id="MP63xAjJxbPP2gbI5e4D-219" value="1" style="text;html=1;strokeColor=none;fillColor=none;align=center;verticalAlign=middle;whiteSpace=wrap;rounded=0;fontSize=16;" parent="1" vertex="1">
          <mxGeometry x="910" y="320" width="60" height="30" as="geometry" />
        </mxCell>
        <mxCell id="MP63xAjJxbPP2gbI5e4D-220" value="&lt;font style=&quot;font-size: 22px;&quot;&gt;*&lt;/font&gt;" style="text;html=1;strokeColor=none;fillColor=none;align=center;verticalAlign=middle;whiteSpace=wrap;rounded=0;fontSize=16;" parent="1" vertex="1">
          <mxGeometry x="1010" y="320" width="60" height="30" as="geometry" />
        </mxCell>
        <mxCell id="MP63xAjJxbPP2gbI5e4D-221" value="1" style="text;html=1;strokeColor=none;fillColor=none;align=center;verticalAlign=middle;whiteSpace=wrap;rounded=0;fontSize=22;" parent="1" vertex="1">
          <mxGeometry x="510" y="1080" width="60" height="30" as="geometry" />
        </mxCell>
        <mxCell id="MP63xAjJxbPP2gbI5e4D-222" value="1" style="text;html=1;strokeColor=none;fillColor=none;align=center;verticalAlign=middle;whiteSpace=wrap;rounded=0;fontSize=22;" parent="1" vertex="1">
          <mxGeometry x="520" y="1660" width="60" height="30" as="geometry" />
        </mxCell>
        <mxCell id="MP63xAjJxbPP2gbI5e4D-223" value="SignupForDayTicket" style="swimlane;fontStyle=1;align=center;verticalAlign=top;childLayout=stackLayout;horizontal=1;startSize=26;horizontalStack=0;resizeParent=1;resizeLast=0;collapsible=1;marginBottom=0;rounded=0;shadow=0;strokeWidth=1;fontSize=15;" parent="1" vertex="1">
          <mxGeometry x="460" y="2060" width="220" height="216" as="geometry">
            <mxRectangle x="550" y="140" width="160" height="26" as="alternateBounds" />
          </mxGeometry>
        </mxCell>
        <mxCell id="MP63xAjJxbPP2gbI5e4D-224" value="-cardID: String" style="text;align=left;verticalAlign=top;spacingLeft=4;spacingRight=4;overflow=hidden;rotatable=0;points=[[0,0.5],[1,0.5]];portConstraint=eastwest;" parent="MP63xAjJxbPP2gbI5e4D-223" vertex="1">
          <mxGeometry y="26" width="220" height="26" as="geometry" />
        </mxCell>
        <mxCell id="MP63xAjJxbPP2gbI5e4D-225" value="-CusID: String" style="text;align=left;verticalAlign=top;spacingLeft=4;spacingRight=4;overflow=hidden;rotatable=0;points=[[0,0.5],[1,0.5]];portConstraint=eastwest;" parent="MP63xAjJxbPP2gbI5e4D-223" vertex="1">
          <mxGeometry y="52" width="220" height="26" as="geometry" />
        </mxCell>
        <mxCell id="MP63xAjJxbPP2gbI5e4D-226" value="-startDay: date&#xa;" style="text;align=left;verticalAlign=top;spacingLeft=4;spacingRight=4;overflow=hidden;rotatable=0;points=[[0,0.5],[1,0.5]];portConstraint=eastwest;rounded=0;shadow=0;html=0;" parent="MP63xAjJxbPP2gbI5e4D-223" vertex="1">
          <mxGeometry y="78" width="220" height="26" as="geometry" />
        </mxCell>
        <mxCell id="MP63xAjJxbPP2gbI5e4D-227" value="" style="line;html=1;strokeWidth=1;align=left;verticalAlign=middle;spacingTop=-1;spacingLeft=3;spacingRight=3;rotatable=0;labelPosition=right;points=[];portConstraint=eastwest;" parent="MP63xAjJxbPP2gbI5e4D-223" vertex="1">
          <mxGeometry y="104" width="220" height="8" as="geometry" />
        </mxCell>
        <mxCell id="MP63xAjJxbPP2gbI5e4D-228" value="-DaylyTicket()" style="text;align=left;verticalAlign=top;spacingLeft=4;spacingRight=4;overflow=hidden;rotatable=0;points=[[0,0.5],[1,0.5]];portConstraint=eastwest;" parent="MP63xAjJxbPP2gbI5e4D-223" vertex="1">
          <mxGeometry y="112" width="220" height="26" as="geometry" />
        </mxCell>
        <mxCell id="MP63xAjJxbPP2gbI5e4D-229" value="-getID()" style="text;align=left;verticalAlign=top;spacingLeft=4;spacingRight=4;overflow=hidden;rotatable=0;points=[[0,0.5],[1,0.5]];portConstraint=eastwest;" parent="MP63xAjJxbPP2gbI5e4D-223" vertex="1">
          <mxGeometry y="138" width="220" height="26" as="geometry" />
        </mxCell>
        <mxCell id="MP63xAjJxbPP2gbI5e4D-230" value="-getDay()" style="text;align=left;verticalAlign=top;spacingLeft=4;spacingRight=4;overflow=hidden;rotatable=0;points=[[0,0.5],[1,0.5]];portConstraint=eastwest;" parent="MP63xAjJxbPP2gbI5e4D-223" vertex="1">
          <mxGeometry y="164" width="220" height="26" as="geometry" />
        </mxCell>
        <mxCell id="MP63xAjJxbPP2gbI5e4D-231" value="" style="endArrow=none;html=1;rounded=0;exitX=0.5;exitY=0;exitDx=0;exitDy=0;entryX=0.5;entryY=1;entryDx=0;entryDy=0;" parent="1" source="MP63xAjJxbPP2gbI5e4D-223" target="MP63xAjJxbPP2gbI5e4D-203" edge="1">
          <mxGeometry width="50" height="50" relative="1" as="geometry">
            <mxPoint x="750" y="1970" as="sourcePoint" />
            <mxPoint x="800" y="1920" as="targetPoint" />
          </mxGeometry>
        </mxCell>
        <mxCell id="MP63xAjJxbPP2gbI5e4D-232" value="TicketDetail" style="swimlane;fontStyle=1;align=center;verticalAlign=top;childLayout=stackLayout;horizontal=1;startSize=26;horizontalStack=0;resizeParent=1;resizeLast=0;collapsible=1;marginBottom=0;rounded=0;shadow=0;strokeWidth=1;fontSize=15;" parent="1" vertex="1">
          <mxGeometry x="950" y="2060" width="220" height="216" as="geometry">
            <mxRectangle x="550" y="140" width="160" height="26" as="alternateBounds" />
          </mxGeometry>
        </mxCell>
        <mxCell id="MP63xAjJxbPP2gbI5e4D-233" value="-cardID: String" style="text;align=left;verticalAlign=top;spacingLeft=4;spacingRight=4;overflow=hidden;rotatable=0;points=[[0,0.5],[1,0.5]];portConstraint=eastwest;" parent="MP63xAjJxbPP2gbI5e4D-232" vertex="1">
          <mxGeometry y="26" width="220" height="26" as="geometry" />
        </mxCell>
        <mxCell id="MP63xAjJxbPP2gbI5e4D-234" value="-detail: String" style="text;align=left;verticalAlign=top;spacingLeft=4;spacingRight=4;overflow=hidden;rotatable=0;points=[[0,0.5],[1,0.5]];portConstraint=eastwest;rounded=0;shadow=0;html=0;" parent="MP63xAjJxbPP2gbI5e4D-232" vertex="1">
          <mxGeometry y="52" width="220" height="26" as="geometry" />
        </mxCell>
        <mxCell id="MP63xAjJxbPP2gbI5e4D-235" value="-date" style="text;align=left;verticalAlign=top;spacingLeft=4;spacingRight=4;overflow=hidden;rotatable=0;points=[[0,0.5],[1,0.5]];portConstraint=eastwest;rounded=0;shadow=0;html=0;" parent="MP63xAjJxbPP2gbI5e4D-232" vertex="1">
          <mxGeometry y="78" width="220" height="26" as="geometry" />
        </mxCell>
        <mxCell id="MP63xAjJxbPP2gbI5e4D-236" value="" style="line;html=1;strokeWidth=1;align=left;verticalAlign=middle;spacingTop=-1;spacingLeft=3;spacingRight=3;rotatable=0;labelPosition=right;points=[];portConstraint=eastwest;" parent="MP63xAjJxbPP2gbI5e4D-232" vertex="1">
          <mxGeometry y="104" width="220" height="8" as="geometry" />
        </mxCell>
        <mxCell id="MP63xAjJxbPP2gbI5e4D-237" value="-getID()" style="text;align=left;verticalAlign=top;spacingLeft=4;spacingRight=4;overflow=hidden;rotatable=0;points=[[0,0.5],[1,0.5]];portConstraint=eastwest;" parent="MP63xAjJxbPP2gbI5e4D-232" vertex="1">
          <mxGeometry y="112" width="220" height="26" as="geometry" />
        </mxCell>
        <mxCell id="MP63xAjJxbPP2gbI5e4D-238" value="-getDetail()" style="text;align=left;verticalAlign=top;spacingLeft=4;spacingRight=4;overflow=hidden;rotatable=0;points=[[0,0.5],[1,0.5]];portConstraint=eastwest;" parent="MP63xAjJxbPP2gbI5e4D-232" vertex="1">
          <mxGeometry y="138" width="220" height="26" as="geometry" />
        </mxCell>
        <mxCell id="MP63xAjJxbPP2gbI5e4D-239" value="" style="endArrow=none;html=1;rounded=0;entryX=0.468;entryY=1.115;entryDx=0;entryDy=0;entryPerimeter=0;exitX=0.436;exitY=-0.005;exitDx=0;exitDy=0;exitPerimeter=0;" parent="1" source="MP63xAjJxbPP2gbI5e4D-232" target="MP63xAjJxbPP2gbI5e4D-202" edge="1">
          <mxGeometry width="50" height="50" relative="1" as="geometry">
            <mxPoint x="750" y="2020" as="sourcePoint" />
            <mxPoint x="800" y="1970" as="targetPoint" />
          </mxGeometry>
        </mxCell>
        <mxCell id="MP63xAjJxbPP2gbI5e4D-240" value="" style="endArrow=none;html=1;rounded=0;entryX=-0.018;entryY=1.154;entryDx=0;entryDy=0;entryPerimeter=0;exitX=1.014;exitY=-0.115;exitDx=0;exitDy=0;exitPerimeter=0;" parent="1" source="MP63xAjJxbPP2gbI5e4D-228" target="MP63xAjJxbPP2gbI5e4D-235" edge="1">
          <mxGeometry width="50" height="50" relative="1" as="geometry">
            <mxPoint x="750" y="2020" as="sourcePoint" />
            <mxPoint x="800" y="1970" as="targetPoint" />
          </mxGeometry>
        </mxCell>
        <mxCell id="MP63xAjJxbPP2gbI5e4D-241" value="&lt;font style=&quot;font-size: 16px;&quot;&gt;1&lt;/font&gt;" style="text;html=1;strokeColor=none;fillColor=none;align=center;verticalAlign=middle;whiteSpace=wrap;rounded=0;" parent="1" vertex="1">
          <mxGeometry x="670" y="1808" width="60" height="30" as="geometry" />
        </mxCell>
        <mxCell id="MP63xAjJxbPP2gbI5e4D-242" value="1" style="text;html=1;strokeColor=none;fillColor=none;align=center;verticalAlign=middle;whiteSpace=wrap;rounded=0;fontSize=16;" parent="1" vertex="1">
          <mxGeometry x="880" y="1808" width="60" height="30" as="geometry" />
        </mxCell>
        <mxCell id="MP63xAjJxbPP2gbI5e4D-243" value="1" style="text;html=1;strokeColor=none;fillColor=none;align=center;verticalAlign=middle;whiteSpace=wrap;rounded=0;fontSize=16;" parent="1" vertex="1">
          <mxGeometry x="570" y="1944" width="60" height="30" as="geometry" />
        </mxCell>
        <mxCell id="MP63xAjJxbPP2gbI5e4D-244" value="1" style="text;html=1;strokeColor=none;fillColor=none;align=center;verticalAlign=middle;whiteSpace=wrap;rounded=0;fontSize=16;" parent="1" vertex="1">
          <mxGeometry x="570" y="2030" width="60" height="30" as="geometry" />
        </mxCell>
        <mxCell id="3bS9maTXzXxZ_Xsgd8PR-1" value="Admin" style="swimlane;fontStyle=1;align=center;verticalAlign=top;childLayout=stackLayout;horizontal=1;startSize=26;horizontalStack=0;resizeParent=1;resizeLast=0;collapsible=1;marginBottom=0;rounded=0;shadow=0;strokeWidth=1;fontSize=15;" vertex="1" parent="1">
          <mxGeometry x="-300" y="929" width="200" height="151" as="geometry">
            <mxRectangle x="550" y="140" width="160" height="26" as="alternateBounds" />
          </mxGeometry>
        </mxCell>
        <mxCell id="3bS9maTXzXxZ_Xsgd8PR-6" value="" style="line;html=1;strokeWidth=1;align=left;verticalAlign=middle;spacingTop=-1;spacingLeft=3;spacingRight=3;rotatable=0;labelPosition=right;points=[];portConstraint=eastwest;" vertex="1" parent="3bS9maTXzXxZ_Xsgd8PR-1">
          <mxGeometry y="26" width="200" height="8" as="geometry" />
        </mxCell>
        <mxCell id="3bS9maTXzXxZ_Xsgd8PR-7" value="+addEmployee(p: Person): void" style="text;align=left;verticalAlign=top;spacingLeft=4;spacingRight=4;overflow=hidden;rotatable=0;points=[[0,0.5],[1,0.5]];portConstraint=eastwest;" vertex="1" parent="3bS9maTXzXxZ_Xsgd8PR-1">
          <mxGeometry y="34" width="200" height="26" as="geometry" />
        </mxCell>
        <mxCell id="3bS9maTXzXxZ_Xsgd8PR-8" value="+editEmployee(id: String)" style="text;align=left;verticalAlign=top;spacingLeft=4;spacingRight=4;overflow=hidden;rotatable=0;points=[[0,0.5],[1,0.5]];portConstraint=eastwest;" vertex="1" parent="3bS9maTXzXxZ_Xsgd8PR-1">
          <mxGeometry y="60" width="200" height="26" as="geometry" />
        </mxCell>
        <mxCell id="3bS9maTXzXxZ_Xsgd8PR-11" value="+deleteEmployee(id: String)" style="text;align=left;verticalAlign=top;spacingLeft=4;spacingRight=4;overflow=hidden;rotatable=0;points=[[0,0.5],[1,0.5]];portConstraint=eastwest;" vertex="1" parent="3bS9maTXzXxZ_Xsgd8PR-1">
          <mxGeometry y="86" width="200" height="26" as="geometry" />
        </mxCell>
        <mxCell id="3bS9maTXzXxZ_Xsgd8PR-9" value="+getEmployee()" style="text;align=left;verticalAlign=top;spacingLeft=4;spacingRight=4;overflow=hidden;rotatable=0;points=[[0,0.5],[1,0.5]];portConstraint=eastwest;" vertex="1" parent="3bS9maTXzXxZ_Xsgd8PR-1">
          <mxGeometry y="112" width="200" height="26" as="geometry" />
        </mxCell>
        <mxCell id="3bS9maTXzXxZ_Xsgd8PR-13" value="AdminOrder" style="swimlane;fontStyle=1;align=center;verticalAlign=top;childLayout=stackLayout;horizontal=1;startSize=26;horizontalStack=0;resizeParent=1;resizeLast=0;collapsible=1;marginBottom=0;rounded=0;shadow=0;strokeWidth=1;fontSize=15;" vertex="1" parent="1">
          <mxGeometry x="-300" y="570" width="200" height="320" as="geometry">
            <mxRectangle x="550" y="140" width="160" height="26" as="alternateBounds" />
          </mxGeometry>
        </mxCell>
        <mxCell id="3bS9maTXzXxZ_Xsgd8PR-23" value="-Id: String" style="text;align=left;verticalAlign=top;spacingLeft=4;spacingRight=4;overflow=hidden;rotatable=0;points=[[0,0.5],[1,0.5]];portConstraint=eastwest;" vertex="1" parent="3bS9maTXzXxZ_Xsgd8PR-13">
          <mxGeometry y="26" width="200" height="26" as="geometry" />
        </mxCell>
        <mxCell id="3bS9maTXzXxZ_Xsgd8PR-24" value="-ItemsList" style="text;align=left;verticalAlign=top;spacingLeft=4;spacingRight=4;overflow=hidden;rotatable=0;points=[[0,0.5],[1,0.5]];portConstraint=eastwest;" vertex="1" parent="3bS9maTXzXxZ_Xsgd8PR-13">
          <mxGeometry y="52" width="200" height="26" as="geometry" />
        </mxCell>
        <mxCell id="3bS9maTXzXxZ_Xsgd8PR-25" value="-QuantityList" style="text;align=left;verticalAlign=top;spacingLeft=4;spacingRight=4;overflow=hidden;rotatable=0;points=[[0,0.5],[1,0.5]];portConstraint=eastwest;" vertex="1" parent="3bS9maTXzXxZ_Xsgd8PR-13">
          <mxGeometry y="78" width="200" height="26" as="geometry" />
        </mxCell>
        <mxCell id="3bS9maTXzXxZ_Xsgd8PR-26" value="-totalPrice" style="text;align=left;verticalAlign=top;spacingLeft=4;spacingRight=4;overflow=hidden;rotatable=0;points=[[0,0.5],[1,0.5]];portConstraint=eastwest;" vertex="1" parent="3bS9maTXzXxZ_Xsgd8PR-13">
          <mxGeometry y="104" width="200" height="26" as="geometry" />
        </mxCell>
        <mxCell id="3bS9maTXzXxZ_Xsgd8PR-27" value="-SupllierID" style="text;align=left;verticalAlign=top;spacingLeft=4;spacingRight=4;overflow=hidden;rotatable=0;points=[[0,0.5],[1,0.5]];portConstraint=eastwest;" vertex="1" parent="3bS9maTXzXxZ_Xsgd8PR-13">
          <mxGeometry y="130" width="200" height="26" as="geometry" />
        </mxCell>
        <mxCell id="3bS9maTXzXxZ_Xsgd8PR-41" value="-state" style="text;align=left;verticalAlign=top;spacingLeft=4;spacingRight=4;overflow=hidden;rotatable=0;points=[[0,0.5],[1,0.5]];portConstraint=eastwest;" vertex="1" parent="3bS9maTXzXxZ_Xsgd8PR-13">
          <mxGeometry y="156" width="200" height="26" as="geometry" />
        </mxCell>
        <mxCell id="3bS9maTXzXxZ_Xsgd8PR-15" value="-role" style="text;align=left;verticalAlign=top;spacingLeft=4;spacingRight=4;overflow=hidden;rotatable=0;points=[[0,0.5],[1,0.5]];portConstraint=eastwest;" vertex="1" parent="3bS9maTXzXxZ_Xsgd8PR-13">
          <mxGeometry y="182" width="200" height="26" as="geometry" />
        </mxCell>
        <mxCell id="3bS9maTXzXxZ_Xsgd8PR-14" value="" style="line;html=1;strokeWidth=1;align=left;verticalAlign=middle;spacingTop=-1;spacingLeft=3;spacingRight=3;rotatable=0;labelPosition=right;points=[];portConstraint=eastwest;" vertex="1" parent="3bS9maTXzXxZ_Xsgd8PR-13">
          <mxGeometry y="208" width="200" height="8" as="geometry" />
        </mxCell>
        <mxCell id="3bS9maTXzXxZ_Xsgd8PR-16" value="+create()" style="text;align=left;verticalAlign=top;spacingLeft=4;spacingRight=4;overflow=hidden;rotatable=0;points=[[0,0.5],[1,0.5]];portConstraint=eastwest;" vertex="1" parent="3bS9maTXzXxZ_Xsgd8PR-13">
          <mxGeometry y="216" width="200" height="26" as="geometry" />
        </mxCell>
        <mxCell id="3bS9maTXzXxZ_Xsgd8PR-17" value="+deliver()" style="text;align=left;verticalAlign=top;spacingLeft=4;spacingRight=4;overflow=hidden;rotatable=0;points=[[0,0.5],[1,0.5]];portConstraint=eastwest;" vertex="1" parent="3bS9maTXzXxZ_Xsgd8PR-13">
          <mxGeometry y="242" width="200" height="26" as="geometry" />
        </mxCell>
        <mxCell id="3bS9maTXzXxZ_Xsgd8PR-28" value="+Discard()" style="text;align=left;verticalAlign=top;spacingLeft=4;spacingRight=4;overflow=hidden;rotatable=0;points=[[0,0.5],[1,0.5]];portConstraint=eastwest;" vertex="1" parent="3bS9maTXzXxZ_Xsgd8PR-13">
          <mxGeometry y="268" width="200" height="26" as="geometry" />
        </mxCell>
        <mxCell id="3bS9maTXzXxZ_Xsgd8PR-18" value="+Paid()" style="text;align=left;verticalAlign=top;spacingLeft=4;spacingRight=4;overflow=hidden;rotatable=0;points=[[0,0.5],[1,0.5]];portConstraint=eastwest;" vertex="1" parent="3bS9maTXzXxZ_Xsgd8PR-13">
          <mxGeometry y="294" width="200" height="26" as="geometry" />
        </mxCell>
        <mxCell id="3bS9maTXzXxZ_Xsgd8PR-29" value="Supplier" style="swimlane;fontStyle=1;align=center;verticalAlign=top;childLayout=stackLayout;horizontal=1;startSize=26;horizontalStack=0;resizeParent=1;resizeLast=0;collapsible=1;marginBottom=0;rounded=0;shadow=0;strokeWidth=1;fontSize=15;" vertex="1" parent="1">
          <mxGeometry x="-310" y="324" width="200" height="150" as="geometry">
            <mxRectangle x="550" y="140" width="160" height="26" as="alternateBounds" />
          </mxGeometry>
        </mxCell>
        <mxCell id="3bS9maTXzXxZ_Xsgd8PR-35" value="-ID" style="text;align=left;verticalAlign=top;spacingLeft=4;spacingRight=4;overflow=hidden;rotatable=0;points=[[0,0.5],[1,0.5]];portConstraint=eastwest;" vertex="1" parent="3bS9maTXzXxZ_Xsgd8PR-29">
          <mxGeometry y="26" width="200" height="26" as="geometry" />
        </mxCell>
        <mxCell id="3bS9maTXzXxZ_Xsgd8PR-36" value="-Name" style="text;align=left;verticalAlign=top;spacingLeft=4;spacingRight=4;overflow=hidden;rotatable=0;points=[[0,0.5],[1,0.5]];portConstraint=eastwest;" vertex="1" parent="3bS9maTXzXxZ_Xsgd8PR-29">
          <mxGeometry y="52" width="200" height="26" as="geometry" />
        </mxCell>
        <mxCell id="3bS9maTXzXxZ_Xsgd8PR-37" value="-PhoneNumber" style="text;align=left;verticalAlign=top;spacingLeft=4;spacingRight=4;overflow=hidden;rotatable=0;points=[[0,0.5],[1,0.5]];portConstraint=eastwest;" vertex="1" parent="3bS9maTXzXxZ_Xsgd8PR-29">
          <mxGeometry y="78" width="200" height="26" as="geometry" />
        </mxCell>
        <mxCell id="3bS9maTXzXxZ_Xsgd8PR-31" value="-Email" style="text;align=left;verticalAlign=top;spacingLeft=4;spacingRight=4;overflow=hidden;rotatable=0;points=[[0,0.5],[1,0.5]];portConstraint=eastwest;" vertex="1" parent="3bS9maTXzXxZ_Xsgd8PR-29">
          <mxGeometry y="104" width="200" height="26" as="geometry" />
        </mxCell>
        <mxCell id="3bS9maTXzXxZ_Xsgd8PR-30" value="" style="line;html=1;strokeWidth=1;align=left;verticalAlign=middle;spacingTop=-1;spacingLeft=3;spacingRight=3;rotatable=0;labelPosition=right;points=[];portConstraint=eastwest;" vertex="1" parent="3bS9maTXzXxZ_Xsgd8PR-29">
          <mxGeometry y="130" width="200" height="8" as="geometry" />
        </mxCell>
        <mxCell id="3bS9maTXzXxZ_Xsgd8PR-38" value="" style="endArrow=none;html=1;rounded=0;entryX=0.409;entryY=-0.002;entryDx=0;entryDy=0;entryPerimeter=0;" edge="1" parent="1" target="3bS9maTXzXxZ_Xsgd8PR-13">
          <mxGeometry width="50" height="50" relative="1" as="geometry">
            <mxPoint x="-220" y="470" as="sourcePoint" />
            <mxPoint x="260" y="660" as="targetPoint" />
          </mxGeometry>
        </mxCell>
        <mxCell id="3bS9maTXzXxZ_Xsgd8PR-39" value="" style="endArrow=none;html=1;rounded=0;exitX=0.938;exitY=-0.176;exitDx=0;exitDy=0;exitPerimeter=0;entryX=0;entryY=0.5;entryDx=0;entryDy=0;" edge="1" parent="1" source="3bS9maTXzXxZ_Xsgd8PR-16" target="MP63xAjJxbPP2gbI5e4D-29">
          <mxGeometry width="50" height="50" relative="1" as="geometry">
            <mxPoint x="210" y="710" as="sourcePoint" />
            <mxPoint x="260" y="660" as="targetPoint" />
          </mxGeometry>
        </mxCell>
        <mxCell id="3bS9maTXzXxZ_Xsgd8PR-40" value="" style="endArrow=none;html=1;rounded=0;exitX=1;exitY=0.5;exitDx=0;exitDy=0;" edge="1" parent="1" source="3bS9maTXzXxZ_Xsgd8PR-8">
          <mxGeometry width="50" height="50" relative="1" as="geometry">
            <mxPoint x="210" y="710" as="sourcePoint" />
            <mxPoint x="40" y="930" as="targetPoint" />
          </mxGeometry>
        </mxCell>
        <mxCell id="3bS9maTXzXxZ_Xsgd8PR-42" value="" style="endArrow=none;html=1;rounded=0;entryX=0.049;entryY=0.009;entryDx=0;entryDy=0;entryPerimeter=0;exitX=1;exitY=0.111;exitDx=0;exitDy=0;exitPerimeter=0;" edge="1" parent="1" source="MP63xAjJxbPP2gbI5e4D-43" target="MP63xAjJxbPP2gbI5e4D-146">
          <mxGeometry width="50" height="50" relative="1" as="geometry">
            <mxPoint x="230" y="850" as="sourcePoint" />
            <mxPoint x="280" y="800" as="targetPoint" />
          </mxGeometry>
        </mxCell>
      </root>
    </mxGraphModel>
  </diagram>
</mxfile>
